<svg width="1581" height="453" viewBox="0 0 1581 453" fill="none" xmlns="http://www.w3.org/2000/svg">
<rect x="60" y="17" width="1476" height="425" fill="white"/>
<path d="M33.9333 2.99997C19.1333 8.3333 7.13335 20.6 2.46668 35.2666C0.466683 41.8 0.333349 57.9333 0.600016 229.667L1.00002 417L4.73335 424.733C9.66668 434.6 19.4 444.333 29.2667 449.267L37 453H791H1545L1553 449.133C1563.13 444.067 1572.07 435.133 1577.13 425L1581 417V227V37L1577.27 29.2666C1572.33 19.4 1562.6 9.66664 1552.73 4.73331L1545 0.999969L793 0.733307C55.8 0.46664 40.8667 0.466636 33.9333 2.99997ZM528.6 73C531.8 74.2 536.6 76.8666 539.133 78.8666L543.667 82.7333L539.8 86.8666L535.933 90.8666L532.067 87.6667C519.667 77.2667 499.667 81.8 492.467 96.6C484.2 113.8 494.733 133.667 513.267 135.933C519.133 136.6 521.4 136.067 527.533 133.133C533.267 130.333 535.4 128.333 537.533 123.8C539.133 120.733 540.333 117.8 540.333 117.267C540.333 116.733 534.6 116.333 527.667 116.333H515V111V105.667H532.867C553.267 105.667 553.4 105.8 551.667 116.733C548.733 134.2 537 145.267 519.667 146.6C499.533 148.2 482.867 135.933 478.733 116.067C472.867 87.9333 500.867 63.6666 528.6 73ZM850.467 74.7333C873.133 86.3333 878.2 117.133 860.6 135.4C852.333 144.067 846.733 146.333 833.667 146.333C820.067 146.333 814.2 143.8 805.933 134.333C787.667 113.667 796.733 80.7333 823 72.2C829 70.2 844.6 71.6666 850.467 74.7333ZM605.667 77.6667V83H589.667H573.667V93V103H588.333H603V109V115H588.333H573.533L573.933 124.6L574.333 134.333L590.067 134.733L605.667 135.133V140.333V145.667H584.333H563V109V72.3333H584.333H605.667V77.6667ZM664.333 77.6667V83H654.333H644.333V114.333V145.667H639H633.667L633.4 114.6L633 83.6667L623.4 83.2667L613.667 82.8666V77.6667V72.3333H639H664.333V77.6667ZM708.333 109V145.667H703H697.667V109V72.3333H703H708.333V109ZM768.333 77.6667V83H759H749.667V114.333V145.667H743.667H737.667V114.333V83H727.667H717.667V77.6667V72.3333H743H768.333V77.6667ZM910.467 97.6667L926.333 123L926.733 97.6667L927 72.3333H933H939V109V145.667H933.267H927.4L910.467 118.333C901 103.267 893.267 91 893.133 91C893.133 91 893.133 103.267 893.4 118.333L893.8 145.667H887.8H881.667V109V72.3333H888.2H894.733L910.467 97.6667ZM137 78.6C139.133 79.8 183 104.467 234.333 133.667C285.667 162.733 337.4 192.067 349.267 198.867C361.133 205.533 372.733 212.6 374.867 214.467C380.733 219.4 382.2 226.067 379.133 233C376.067 239.8 375.667 240.067 339.933 260.333L310.733 276.733L113.933 374.067L111.8 369.933C109.933 366.2 109.667 351.667 109.667 226.733C109.667 89.6666 109.667 87.6667 112.333 83.2667C117.267 75.2667 126.733 73.4 137 78.6ZM574.067 194.333C583.933 196.867 595.667 202.867 602.333 208.733L607.667 213.4L600.467 220.867L593.133 228.2L588.733 224.867C570.867 211.267 544.067 209.933 525.4 221.8C498.067 239.267 490.733 276.867 509.667 303.267C520.6 318.733 535.933 326.2 555.667 326.067C576.867 325.933 592.6 317.267 600.067 301.4C602.333 296.733 604.6 291 605 288.6L605.933 284.333H580.467H555V273.667V263H591H627L627.133 269.267C627.933 296.6 621.933 313.667 606.467 328.067C591.8 341.667 577.133 347.267 555.667 347.267C533.533 347.4 514.6 339.667 499.133 324.333C484.067 309.533 476.333 291.267 476.333 270.6C476.333 247.667 482.867 232.333 499.667 215.667C511.133 204.2 522.067 197.8 536.067 194.333C546.333 191.933 564.733 191.933 574.067 194.333ZM988.333 271.667V345.8L977.4 345.4L966.333 345L965.933 271.267L965.667 197.667H977H988.333V271.667ZM1213.93 202.6C1224.07 207.4 1232.07 215 1236.6 224.067C1239.13 229.4 1239.67 232.467 1239.67 243.667C1239.67 255.933 1239.4 257.533 1235.8 264.067C1228.73 276.733 1216.2 285.4 1201 288.2C1196.73 289 1186.07 289.667 1177.4 289.667H1161.67V317.667V345.667H1151H1140.33V271.533V197.533L1172.73 197.933L1205 198.333L1213.93 202.6ZM1275 271.667V345.667H1264.33H1253.67V271.667V197.667H1264.33H1275V271.667ZM916.067 249.933C918.6 250.733 922.6 253.133 925.133 255.267L929.667 259.267V255.133V251H940.467H951.133L950.733 303.933C950.333 356.2 950.2 357.133 947.133 365C942.733 375.8 932.867 385.533 922.333 389.533C915.533 392.067 912.467 392.467 901.667 392.067C891.133 391.533 887.8 390.867 881.933 387.933C873.533 383.533 865.533 375.8 861.8 368.6L859.133 363.4L867.4 359.8C871.933 357.933 876.333 356.333 877 356.333C877.8 356.467 879.933 358.733 881.933 361.667C886.867 368.867 895 372.867 904.333 372.867C920.2 372.733 929.667 361.933 929.667 344.067V335.8L926.067 339.4C920.2 345 912.733 347.533 902.2 347.4C884.467 347.4 868.067 336.467 859.8 319C856.067 311.133 855.667 309.133 855.667 297.667C855.667 286.733 856.2 283.933 859.267 277.4C869.933 254.6 893.8 243.133 916.067 249.933ZM1065.13 252.467C1069.67 254.6 1075.53 258.733 1078.2 261.667C1083.27 267.4 1092.07 283.667 1090.73 285C1090.33 285.533 1081.27 289.4 1070.87 293.8C1060.33 298.2 1045.8 304.2 1038.73 307.133C1031.53 310.2 1025.67 313.4 1025.67 314.2C1025.67 316.733 1033.93 324.067 1039.27 326.2C1049.27 330.467 1061.8 327.4 1069.8 318.867L1073.67 314.733L1081.67 319.8C1086.07 322.733 1089.67 325.667 1089.67 326.467C1089.67 327.4 1086.33 331.133 1082.33 334.733C1070.6 345.533 1054.6 350.067 1039.53 347C1022.87 343.533 1011 334.333 1003.93 319.267C1000.07 311.133 999.667 309.267 999.8 297.667C999.8 287.8 1000.47 283.267 1002.87 277.4C1010.33 258.333 1030.6 245.933 1051 247.933C1054.33 248.333 1060.73 250.333 1065.13 252.467ZM1349 251.133C1357.93 254.467 1365.53 261 1369.67 269.133C1372.87 275.533 1373 276.467 1373.4 309.933L1373.8 344.333H1363.13H1352.33V338.867V333.4L1349 337.4C1337.93 350.6 1312.87 351 1297.93 338.333C1283.93 326.6 1284.33 304.2 1298.6 292.467C1309.8 283.133 1331.53 279.667 1345.53 284.867C1352.73 287.533 1352.33 287.533 1352.33 284.333C1352.33 268.867 1326.6 261.4 1313.67 273.133L1308.6 277.8L1299.8 274.2C1295 272.2 1291 269.667 1291 268.733C1291 265.667 1301.53 255.267 1307.8 252.333C1319.53 246.6 1335.67 246.067 1349 251.133ZM707.267 252.6C716.867 257.133 726.2 266.333 730.733 276.067C733.933 282.867 734.333 285.267 734.333 298.333C734.333 312.467 734.2 313.267 729.8 321.4C709.933 357.933 657.667 356.467 639.8 319C636.067 311.133 635.667 309.133 635.667 297.667C635.667 286.733 636.2 283.933 639.267 277.4C645.267 264.333 657 254.067 671 249.533C672.867 248.867 680.067 248.6 687 248.733C697.4 249 701 249.8 707.267 252.6ZM817.933 253.4C835.8 262.2 844.733 277.133 844.867 298.333C845 314.2 840.867 323.8 829.533 334.2C819.267 343.667 809.933 347.4 795.667 347.533C782.733 347.667 774.333 345 765 337.933C738.2 317.667 738.467 275.8 765.667 257C775 250.467 783.533 248.2 797 248.6C807.533 249 810.2 249.533 817.933 253.4ZM1412.33 282.333C1419.27 299.533 1425.4 313.667 1425.8 313.667C1426.2 313.667 1432.2 299.533 1439 282.333L1451.53 251H1463.4C1474.2 251 1475.27 251.267 1474.47 253.267C1473.93 254.6 1460.6 285.8 1444.6 322.6L1415.67 389.667H1404.07H1392.47L1395.53 382.6C1397.27 378.867 1402.33 367.667 1406.87 357.933L1414.87 340.067L1395.67 296.333C1385 272.2 1376.33 252.2 1376.33 251.8C1376.33 251.4 1381.53 251 1388.07 251H1399.67L1412.33 282.333Z" fill="black"/>
<path d="M824.333 83.8C806.2 91.6667 802.467 117.267 817.533 130.067C834.733 144.467 859.533 132.067 859.533 109C859.533 89.4 841.4 76.4667 824.333 83.8Z" fill="black"/>
<path d="M1161.67 243V268.333H1180.2C1190.47 268.333 1200.47 267.667 1202.6 266.867C1211.13 263.667 1219 252.333 1219 243C1219 232.6 1210.73 221.8 1200.6 219C1197.93 218.333 1188.07 217.667 1178.73 217.667H1161.67V243Z" fill="black"/>
<path d="M897.267 268.733C884.867 272.6 877.133 284.067 877.267 298.333C877.533 328.467 914.467 339.533 927.533 313.533C931.8 304.733 932.333 291.933 928.467 283.667C925.4 276.867 917.933 270.2 911.4 268.467C905.267 266.733 903.8 266.733 897.267 268.733Z" fill="black"/>
<path d="M1039.93 268.333C1030.6 271.133 1023.13 280.333 1021.13 291.533C1020.33 295.533 1020.6 296.467 1021.93 295.933C1029.67 292.733 1057.27 281.267 1061 279.667C1065.27 277.933 1065.67 277.4 1064.33 274.867C1061.13 269 1048.73 265.667 1039.93 268.333Z" fill="black"/>
<path d="M1319.53 302.2C1311.13 305.933 1307 316.067 1311.53 321.933C1313.8 325 1321.93 328.333 1327 328.333C1332.2 328.333 1340.07 325.133 1344.07 321.267C1347.53 318.067 1352.33 309.533 1352.33 306.467C1352.33 301.4 1328.73 298.2 1319.53 302.2Z" fill="black"/>
<path d="M677.267 268.733C664.733 272.733 657.667 283.133 657.667 297.667C657.667 308.2 660.733 315.4 667.4 321.267C684.6 336.333 710.867 324.867 713.267 301.267C715.533 279.667 696.467 262.467 677.267 268.733Z" fill="black"/>
<path d="M788.067 268.2C781 270.467 775 275.267 771.267 281.4C768.2 286.733 767.667 289.133 767.667 297.8C767.667 306.6 768.2 308.6 771.667 314.467C777.267 323.667 787.267 328.867 797.533 327.8C806.2 327 813.533 322.467 818.6 314.733C821.933 309.8 822.333 308.067 822.333 297.533C822.333 286.733 822.067 285.533 818.333 280.067C811.533 270.467 797.8 265.133 788.067 268.2Z" fill="black"/>
</svg>
