<svg width="1590" height="476" viewBox="0 0 1590 476" fill="none" xmlns="http://www.w3.org/2000/svg">
<rect x="60" y="16" width="1476" height="425" fill="white"/>
<path d="M52.5673 4.57433C33.4224 9.99648 11.0327 29.8777 4.54286 46.7466C0.973469 56.0847 0 93.4373 0 239.233V420.272L8.43673 435.033C18.8204 453.709 38.6143 468.168 60.0306 472.385C83.3939 477.205 1506.61 477.205 1529.97 472.385C1551.39 468.168 1571.18 453.709 1581.56 435.033L1590 420.272V237.727V55.181L1581.56 40.4208C1571.18 21.7445 1551.39 7.2854 1529.97 3.06818C1518.29 0.658333 1301.85 -0.245358 790.782 0.0558726C161.596 0.0558726 66.1959 0.658333 52.5673 4.57433ZM796.622 132.296C796.622 169.347 796.298 171.456 790.133 171.456C783.967 171.456 783.643 169.347 783.643 134.405C783.643 96.7509 784.292 93.1361 792.404 93.1361C795.649 93.1361 796.622 101.571 796.622 132.296ZM1007.54 132.296C1007.54 169.347 1007.22 171.456 1001.05 171.456C997.482 171.456 994.561 169.95 994.561 167.841C994.561 165.13 993.588 165.13 990.667 167.841C988.396 169.95 981.257 171.456 974.443 171.456C958.867 171.456 950.755 161.214 951.08 141.634C951.404 131.091 953.351 126.874 960.165 121.151C970.549 113.017 977.363 112.415 987.422 119.042C994.561 123.56 994.561 123.56 994.561 108.499C994.561 95.2447 995.535 93.1361 1001.05 93.1361C1007.22 93.1361 1007.54 95.2447 1007.54 132.296ZM1293.09 107.294C1294.39 117.837 1295.69 119.644 1299.58 117.235C1307.37 112.415 1318.73 113.921 1325.54 120.247C1330.73 125.067 1332.03 130.187 1332.03 148.864C1332.03 169.347 1331.38 171.456 1325.54 171.456C1320.02 171.456 1319.38 169.046 1318.4 149.466L1317.43 127.778H1306.07H1294.71L1293.74 149.466C1292.77 169.046 1292.12 171.456 1286.6 171.456C1280.44 171.456 1280.11 169.046 1280.11 131.995C1280.11 96.1484 1280.76 92.8349 1285.95 93.7385C1289.85 94.341 1291.79 98.5582 1293.09 107.294ZM519.508 103.679C538.004 114.825 541.249 144.948 525.673 161.817C519.184 169.046 515.614 169.95 493.549 170.854L468.888 172.058V133.802V95.2447L489.98 96.7509C501.661 97.6545 514.965 100.667 519.508 103.679ZM299.18 109.403C295.935 128.079 286.849 141.634 271.273 150.671C263.161 155.491 253.427 159.407 249.208 159.407C243.043 159.407 241.745 157.901 241.745 149.466C241.745 128.079 270.949 99.7632 293.339 99.1607C300.153 99.1607 300.802 100.064 299.18 109.403ZM1250.91 109.704C1250.91 115.126 1252.53 117.235 1257.4 117.235C1260.97 117.235 1263.89 119.343 1263.89 121.753C1263.89 124.163 1260.97 126.271 1257.4 126.271C1251.56 126.271 1250.91 128.38 1250.91 143.14C1250.91 157.298 1251.88 160.31 1257.4 161.515C1267.46 163.925 1265.51 171.456 1254.8 171.456C1241.17 171.456 1237.93 166.335 1237.93 145.249C1237.93 130.489 1236.96 126.271 1233.06 126.271C1230.47 126.271 1228.19 124.163 1228.19 121.753C1228.19 119.343 1230.47 117.235 1233.06 117.235C1235.98 117.235 1237.93 114.523 1237.93 109.704C1237.93 104.282 1239.55 102.173 1244.42 102.173C1249.29 102.173 1250.91 104.282 1250.91 109.704ZM596.412 120.247C613.286 132.597 609.392 164.528 589.922 170.854C568.182 177.782 550.01 165.431 550.01 143.743C550.01 120.247 577.267 106.39 596.412 120.247ZM630.808 125.368C632.431 131.694 634.702 141.333 636 147.056C638.92 159.407 641.516 156.093 647.357 132.899C651.251 116.933 658.714 109.704 663.582 116.933C664.88 119.042 667.8 128.079 670.071 137.116C672.343 146.153 675.263 153.382 676.561 153.382C677.859 153.382 680.78 145.249 683.051 135.007C686.945 118.439 693.11 110.306 698.302 115.427C699.276 116.331 696.68 128.983 692.137 143.442C685.647 165.13 682.727 170.251 677.21 170.854C671.694 171.757 669.747 169.649 666.827 158.804C658.714 129.284 658.39 129.284 652.549 147.056C649.629 156.093 647.357 165.431 647.357 167.54C647.357 169.649 643.788 171.456 639.894 171.456C633.08 171.456 631.457 168.745 625.292 147.659C616.855 119.644 616.531 114.222 623.02 114.222C625.616 114.222 628.861 119.042 630.808 125.368ZM725.235 119.042C725.235 123.259 725.884 123.259 732.373 119.042C752.167 106.089 765.147 117.536 766.769 149.165C768.067 170.251 767.743 171.456 761.253 171.456C755.088 171.456 754.439 169.649 754.439 153.683C754.439 130.187 752.492 126.271 741.135 126.271C729.129 126.271 725.235 133.501 725.235 154.587C725.235 167.54 724.261 171.456 720.367 171.456C716.473 171.456 715.5 166.335 715.5 142.839C715.5 119.343 716.473 114.222 720.367 114.222C722.963 114.222 725.235 116.331 725.235 119.042ZM862.169 123.259C870.931 131.694 871.904 134.103 870.282 146.153C867.686 168.444 851.461 178.083 830.369 169.95C810.9 162.419 807.655 132.899 824.853 120.247C837.184 111.511 850.488 112.415 862.169 123.259ZM928.041 121.753C935.18 128.079 936.153 131.694 936.153 150.37C936.153 169.347 935.504 171.456 929.663 171.456C926.094 171.456 923.173 169.95 923.173 167.841C923.173 165.13 922.2 165.13 919.28 167.841C917.008 169.95 910.194 171.456 903.704 171.456C889.751 171.456 884.235 167.239 884.235 156.093C884.235 145.55 890.725 141.032 908.571 138.923C924.147 137.417 928.041 131.694 917.008 126.573C913.114 124.464 907.922 124.464 901.108 126.874C888.129 131.392 883.586 127.476 893.645 119.946C904.029 112.114 918.631 112.716 928.041 121.753ZM1105.54 123.259C1114.3 131.694 1115.27 134.103 1113.65 146.153C1111.05 168.444 1094.83 178.083 1073.74 169.95C1054.27 162.419 1051.02 132.899 1068.22 120.247C1080.55 111.511 1093.86 112.415 1105.54 123.259ZM1140.58 118.741C1140.58 122.355 1141.88 122.355 1149.67 118.138C1161.67 111.812 1175.63 114.825 1179.52 125.067C1181.47 129.284 1182.77 141.333 1182.77 152.177C1182.77 169.347 1182.12 171.456 1176.28 171.456C1170.76 171.456 1170.11 169.046 1169.14 149.466L1168.16 127.778H1156.81H1145.45L1144.48 149.466C1143.5 169.046 1142.85 171.456 1137.34 171.456C1131.5 171.456 1130.85 169.347 1130.85 142.839C1130.85 119.343 1131.82 114.222 1135.71 114.222C1138.31 114.222 1140.58 116.331 1140.58 118.741ZM1391.74 120.849C1396.6 124.765 1401.15 132.296 1402.12 137.417L1404.39 147.358H1382.65C1367.4 147.358 1361.23 148.562 1361.23 151.274C1361.23 161.515 1378.11 166.034 1390.44 158.804C1399.52 153.382 1402.44 158.503 1394.66 165.733C1385.25 174.468 1366.43 174.167 1356.04 165.13C1349.88 160.009 1348.26 155.19 1348.26 144.345C1348.26 129.886 1351.82 123.259 1362.86 117.837C1372.92 112.415 1382.98 113.62 1391.74 120.849ZM218.057 168.444C240.771 175.673 244.99 175.673 267.704 168.444C297.882 158.503 321.894 161.817 341.688 178.987L353.694 189.229L346.555 194.048C342.337 196.759 335.198 204.893 330.655 212.423C323.192 224.171 322.218 228.389 323.516 244.956C324.814 266.042 334.549 281.706 352.396 291.647L361.482 296.768L353.369 313.034C342.661 334.723 324.165 357.315 312.808 362.737C301.127 368.461 286.849 368.461 271.922 362.737C257.32 357.014 235.904 357.014 221.302 362.737C214.812 365.147 204.104 367.256 197.29 367.256C173.602 367.256 139.531 324.782 126.551 278.393C111.3 223.569 132.716 178.686 180.092 165.13C193.071 161.515 198.588 162.118 218.057 168.444ZM1028.63 218.147C1041.29 223.87 1051.35 235.317 1054.59 247.667C1056.86 255.499 1056.21 255.801 1044.53 255.801C1033.82 255.801 1030.9 254.294 1026.36 246.764C1019.55 235.618 1006.89 230.798 988.72 232.606C970.873 234.413 962.112 241.643 962.112 254.596C962.112 263.331 963.735 265.44 974.443 270.561C980.933 273.573 994.886 277.79 1004.94 279.899C1043.88 288.032 1062.38 306.106 1057.84 331.108C1048.43 382.317 943.941 384.125 930.961 333.217C929.014 325.385 929.339 325.084 941.345 325.084C952.053 325.084 954.973 326.59 959.516 334.12C966.331 344.965 976.714 349.182 997.482 349.182C1018.25 349.182 1030.26 340.748 1030.26 326.288C1030.26 317.854 1028.31 314.842 1019.87 310.022C1014.03 306.708 1001.38 302.491 991.316 300.684C943.941 291.647 925.12 270.862 938.1 241.04C946.861 220.255 969.251 209.712 1000.08 212.122C1009.16 212.725 1022.14 215.436 1028.63 218.147ZM571.427 291.044L600.955 367.256H587.327H573.373L566.235 347.676L559.096 327.795L526.647 328.698L493.873 329.602L486.735 347.676C479.596 365.448 479.271 365.75 465.643 366.653C455.259 367.256 452.339 366.653 453.312 363.641C454.286 361.532 467.914 326.891 483.814 286.526L512.369 213.327L526.971 214.231L541.573 215.134L571.427 291.044ZM1111.38 242.245V255.801H1124.36C1136.69 255.801 1137.34 256.403 1137.34 264.837C1137.34 273.272 1136.69 273.874 1124.36 273.874H1111.38V306.407C1111.38 341.651 1113.65 347.977 1127.6 349.784C1133.77 350.387 1136.04 352.797 1136.69 358.52C1137.34 364.846 1136.04 366.955 1129.22 368.461C1117.54 371.172 1096.13 365.147 1091.91 358.219C1090.29 355.207 1088.66 335.024 1088.66 313.336V273.874H1078.93C1070.17 273.874 1069.19 272.971 1069.19 264.837C1069.19 256.704 1070.17 255.801 1078.93 255.801C1088.34 255.801 1088.66 255.198 1088.66 242.245C1088.66 228.69 1088.66 228.69 1100.02 228.69C1111.38 228.69 1111.38 228.69 1111.38 242.245ZM1234.68 260.319C1255.13 269.958 1263.89 286.225 1263.89 313.938C1263.89 349.182 1243.44 368.762 1207.1 368.762C1168.81 368.762 1148.37 346.471 1150.97 307.01C1152.26 285.02 1157.46 275.381 1173.68 263.934C1189.58 253.089 1215.54 251.583 1234.68 260.319ZM1441.38 262.428C1454.04 269.356 1465.07 289.84 1465.07 306.407V319.059H1422.89H1380.7V326.288C1380.7 348.58 1423.86 359.123 1436.84 340.145C1439.44 336.229 1444.3 334.12 1451.12 334.12C1464.42 334.12 1466.04 337.133 1458.58 348.58C1449.82 362.135 1434.57 368.461 1411.21 368.762C1372.59 368.762 1352.47 346.17 1355.39 305.805C1356.69 285.02 1362.21 275.079 1378.11 263.934C1395.31 252.186 1421.91 251.282 1441.38 262.428ZM640.867 263.331V270.561L652.549 263.331C675.912 248.571 709.335 255.198 723.288 276.887C732.049 291.044 733.996 321.77 726.857 338.639C714.527 369.364 673.316 379.305 648.655 357.918L640.867 351.291V378.703V406.416H629.51H618.153V331.108V255.801H629.51C639.569 255.801 640.867 256.704 640.867 263.331ZM777.153 263.633V271.465L787.212 263.633C795 257.608 800.516 255.801 813.171 255.801C841.727 255.801 857.951 268.753 864.765 296.467C877.42 348.278 826.151 389.848 786.888 359.424L777.153 351.592V379.004V406.416H764.173H751.194V331.108V255.801H764.173C775.855 255.801 777.153 256.403 777.153 263.633ZM1309.32 263.633V271.766L1317.43 263.633C1322.94 257.909 1328.46 255.801 1336.9 255.801C1347.61 255.801 1348.26 256.403 1348.26 266.344C1348.26 276.284 1347.61 276.887 1336.9 276.887C1329.76 276.887 1322.94 279.297 1319.05 282.911C1313.21 288.333 1312.56 292.852 1312.56 328.096V367.256H1299.58H1286.6V311.528V255.801H1297.96C1308.02 255.801 1309.32 256.704 1309.32 263.633Z" fill="black"/>
<path d="M965.357 134.103C960.814 144.646 961.138 147.96 967.304 155.792C977.687 169.649 994.561 161.515 994.561 142.237C994.561 131.091 989.369 126.271 977.687 126.271C970.873 126.271 967.628 128.079 965.357 134.103Z" fill="black"/>
<path d="M481.867 135.61V163.323L495.171 161.516C517.886 158.805 527.62 144.345 520.806 124.464C516.263 112.415 509.449 108.198 493.549 108.198H481.867V135.61Z" fill="black"/>
<path d="M566.884 129.886C561.692 134.706 562.016 150.671 567.208 157.6C577.916 171.155 599.982 153.382 593.492 136.212C591.22 129.886 587.976 127.476 580.837 126.874C575.32 126.272 569.155 127.778 566.884 129.886Z" fill="black"/>
<path d="M829.072 131.995C824.204 140.73 825.178 152.177 831.019 157.599C837.833 164.226 850.812 163.624 855.031 156.696C859.574 148.864 859.249 134.405 854.382 129.886C848.217 124.163 832.966 125.368 829.072 131.995Z" fill="black"/>
<path d="M899.486 149.466C898.188 150.37 897.214 153.984 897.214 156.997C897.214 160.913 899.81 162.419 906.3 162.419C916.035 162.419 923.174 157.599 923.174 151.273C923.174 147.056 903.38 145.55 899.486 149.466Z" fill="black"/>
<path d="M1072.76 131.995C1064 147.056 1072.44 163.624 1088.34 161.817C1098.72 160.612 1104.24 148.261 1099.7 135.911C1095.8 125.368 1077.96 122.657 1072.76 131.995Z" fill="black"/>
<path d="M1367.08 126.572C1355.72 132.597 1360.26 138.32 1375.84 138.32C1392.06 138.32 1394.33 135.007 1383.3 128.078C1374.86 122.355 1374.54 122.355 1367.08 126.572Z" fill="black"/>
<path d="M514.641 270.259C508.8 286.225 503.284 301.286 502.31 303.094C501.337 306.106 506.853 307.01 525.349 307.01C538.978 307.01 550.01 305.805 550.01 304.298C550.01 301.889 527.62 243.149 525.998 241.643C525.674 241.341 520.482 253.993 514.641 270.259Z" fill="black"/>
<path d="M1186.98 281.104C1179.2 287.43 1177.9 290.743 1176.92 309.118C1175.63 328.096 1176.28 330.807 1184.39 339.543C1191.53 347.676 1195.42 349.182 1207.1 349.182C1218.78 349.182 1222.68 347.676 1229.49 339.844C1236.63 332.012 1237.93 327.795 1237.93 310.926C1237.93 293.454 1236.95 290.743 1228.52 282.61C1216.19 271.465 1199.96 270.862 1186.98 281.104Z" fill="black"/>
<path d="M1389.14 281.706C1384.6 286.225 1380.7 292.249 1380.7 295.261C1380.7 300.382 1383.62 300.985 1409.91 300.985C1437.16 300.985 1439.11 300.684 1439.11 294.96C1439.11 291.345 1435.54 285.321 1431 281.405C1419.97 270.862 1400.82 271.163 1389.14 281.706Z" fill="black"/>
<path d="M661.31 276.887C646.384 282.61 638.271 304.901 644.112 324.782C648.331 339.242 660.661 349.182 674.939 349.182C704.792 349.182 717.447 302.793 692.786 282.008C682.726 273.573 673.965 272.067 661.31 276.887Z" fill="black"/>
<path d="M789.808 282.309C781.047 289.538 779.1 293.454 777.802 307.612C775.531 334.121 786.888 349.182 809.602 349.182C823.555 349.182 838.806 335.024 839.131 321.469C840.104 296.467 833.939 281.405 820.635 276.887C807.331 272.067 800.517 273.272 789.808 282.309Z" fill="black"/>
</svg>
