<svg width="20" height="21" viewBox="0 0 20 21" fill="none" xmlns="http://www.w3.org/2000/svg">
<path d="M9.43087 0.00692437C7.91909 0.121284 6.67229 0.458785 5.45618 1.08079C4.46599 1.58565 3.63758 2.19928 2.83148 3.01933C1.28902 4.59805 0.357405 6.52822 0.0533753 8.77636C-0.0107777 9.24775 -0.0191455 10.6591 0.039429 11.1193C0.217942 12.5307 0.619596 13.7719 1.26113 14.9044C3.05741 18.073 6.36826 20.0143 9.97478 20.0171C11.124 20.0171 12.1337 19.8525 13.1685 19.4955C13.4614 19.3951 13.7263 19.3114 13.7598 19.3114C13.7905 19.3086 13.8128 19.2975 13.8072 19.2891C13.7905 19.2612 14.3288 19.0381 14.3595 19.0576C14.3762 19.0687 14.3818 19.066 14.3734 19.0492C14.3511 19.0157 14.5436 18.9209 14.5826 18.946C14.6022 18.96 14.605 18.9516 14.591 18.9293C14.5743 18.9014 14.5799 18.8958 14.6161 18.9098C14.6468 18.9237 14.658 18.9181 14.644 18.8958C14.6301 18.8735 14.6384 18.8707 14.6719 18.8819C14.697 18.893 14.7137 18.8902 14.7054 18.8763C14.697 18.8651 14.7416 18.8261 14.8002 18.7926C14.9006 18.7368 14.909 18.7368 14.895 18.7814C14.8839 18.8233 14.8867 18.8205 14.9146 18.7759C14.9648 18.695 15.0317 18.6504 15.0791 18.6671C15.1014 18.6755 15.1098 18.6727 15.0987 18.6615C15.0875 18.6504 15.1544 18.5918 15.2465 18.5332C15.4222 18.4216 15.4557 18.4077 15.4278 18.4551C15.3999 18.4997 15.4306 18.4858 15.4724 18.4356C15.5003 18.4049 15.5003 18.3965 15.478 18.4105C15.4585 18.4216 15.4417 18.4244 15.4417 18.4161C15.4417 18.4077 15.4808 18.3798 15.5254 18.3575C15.5728 18.3324 15.637 18.2905 15.6677 18.2654C15.6983 18.2403 15.729 18.2236 15.7346 18.232C15.7402 18.2403 15.7653 18.2208 15.7904 18.1901L15.8322 18.1343L15.8183 18.1901C15.8043 18.2348 15.8099 18.232 15.835 18.1818C15.8545 18.1483 15.955 18.0562 16.0582 17.9809C16.1586 17.9028 16.259 17.8219 16.2785 17.7996C16.3204 17.7494 16.3733 17.7438 16.3455 17.7913C16.3287 17.8192 16.3343 17.8192 16.3678 17.7913C16.3929 17.7717 16.4236 17.7578 16.4347 17.7606C16.4487 17.7634 16.4793 17.7634 16.5017 17.7606C16.5351 17.7578 16.5323 17.7494 16.4933 17.7271C16.457 17.7048 16.4291 17.7076 16.3957 17.7327C16.3706 17.7522 16.4236 17.6964 16.5156 17.61C16.6662 17.4677 16.7778 17.3952 16.6997 17.4872C16.6634 17.5346 16.6885 17.5653 16.7471 17.543C16.7778 17.5291 16.7834 17.5346 16.7666 17.5625C16.7499 17.5876 16.7555 17.5932 16.7806 17.5765C16.8085 17.5598 16.8085 17.5458 16.7722 17.5207C16.7276 17.49 16.7304 17.4844 16.775 17.4398C16.8029 17.4147 16.8336 17.4008 16.8419 17.4091C16.8475 17.4175 16.8559 17.4036 16.8559 17.3812C16.8559 17.3478 16.8392 17.3533 16.7889 17.4008C16.7555 17.4342 16.7248 17.4538 16.7248 17.4426C16.7248 17.4147 17.0372 17.1302 17.0623 17.1358C17.0762 17.1414 17.0846 17.133 17.079 17.1218C17.0762 17.1079 17.1934 16.9684 17.344 16.8066C17.4918 16.6477 17.6648 16.4496 17.7289 16.3687C17.7931 16.2906 17.86 16.2321 17.874 16.2432C17.8935 16.2516 17.8963 16.246 17.8851 16.2265C17.86 16.1874 17.9158 16.1121 17.9604 16.1233C17.98 16.1261 17.9855 16.1261 17.9744 16.1205C17.9604 16.1121 17.966 16.0842 17.9828 16.0535C17.9967 16.0229 18.0218 16.0061 18.0357 16.0145C18.0525 16.0229 18.0553 16.0145 18.0469 15.9922C18.0385 15.9699 18.0553 15.9364 18.0832 15.9141C18.1278 15.8778 18.1306 15.8806 18.0971 15.9197C18.0692 15.9587 18.072 15.9727 18.1111 16.0033C18.1557 16.0396 18.1585 16.0368 18.125 15.995C18.0999 15.9643 18.0971 15.9448 18.1194 15.9308C18.1362 15.9225 18.1417 15.9029 18.1334 15.889C18.1138 15.8555 18.231 15.6909 18.2617 15.7105C18.2728 15.716 18.2924 15.7077 18.3035 15.6909C18.3147 15.6686 18.3119 15.6658 18.2924 15.677C18.2477 15.7049 18.2505 15.677 18.3035 15.5961C18.3286 15.5571 18.3593 15.5347 18.3733 15.5431C18.3872 15.5515 18.39 15.5403 18.3816 15.518C18.3733 15.4957 18.3816 15.4678 18.4011 15.4539C18.4235 15.4399 18.429 15.4455 18.4123 15.4706C18.3984 15.4957 18.4011 15.5013 18.4235 15.4873C18.4402 15.4762 18.4486 15.4539 18.4402 15.4399C18.429 15.426 18.4681 15.3395 18.5267 15.2475C18.6354 15.0717 18.6801 15.0243 18.6103 15.1582C18.5769 15.2223 18.5769 15.2391 18.6075 15.2391C18.6271 15.2391 18.6382 15.2196 18.6271 15.1972C18.6187 15.1721 18.6243 15.161 18.641 15.1721C18.6578 15.1833 18.6661 15.1582 18.6605 15.1052C18.6522 15.0466 18.6605 15.0271 18.6829 15.041C18.6996 15.0522 18.7052 15.0494 18.694 15.0299C18.6773 15.002 18.8614 14.6338 18.8921 14.6338C18.8976 14.6338 18.8948 14.6478 18.8837 14.6673C18.8725 14.6868 18.8753 14.6896 18.8948 14.6784C18.9116 14.6673 18.9172 14.6394 18.9088 14.6143C18.8948 14.5808 18.9004 14.5752 18.9283 14.592C18.9534 14.6059 18.959 14.6031 18.945 14.5808C18.9144 14.5334 19.2407 13.8445 19.2714 13.8891C19.2881 13.9114 19.2909 13.9058 19.2798 13.8696C19.2574 13.8026 19.3718 13.4846 19.4109 13.5097C19.4276 13.5181 19.4304 13.5125 19.4192 13.493C19.4081 13.4763 19.4499 13.3061 19.5113 13.1192C19.7233 12.4833 19.8571 11.8613 19.9492 11.1054C20.0329 10.4137 20.0105 9.30075 19.9018 8.56717C19.5782 6.39433 18.602 4.46417 17.0428 2.90776C15.4445 1.31509 13.3888 0.3249 11.1184 0.0599204C10.7558 0.0180814 9.71538 -0.0153897 9.43087 0.00692437ZM12.3735 3.86726C13.7012 3.95094 14.3902 4.19919 15.0512 4.83514C15.6593 5.41809 15.9466 6.04568 16.0749 7.08049C16.1195 7.43752 16.1251 7.74434 16.1251 10.0315C16.1251 12.3522 16.1195 12.6172 16.0749 12.9603C15.9382 13.956 15.6844 14.5278 15.121 15.0968C14.379 15.8471 13.7068 16.0731 11.997 16.1428C10.9203 16.1874 7.6318 16.1595 7.14368 16.101C6.11444 15.981 5.5008 15.7244 4.93179 15.1777C4.62498 14.8848 4.45483 14.6561 4.27074 14.2852C4.01134 13.7636 3.90814 13.295 3.8663 12.4526C3.83283 11.7916 3.83283 8.21572 3.8663 7.55467C3.90814 6.75136 4.00855 6.26324 4.24285 5.77233C4.60266 5.01086 5.23582 4.4279 6.01124 4.14619C6.42126 3.99557 7.113 3.88679 7.8131 3.8589C8.38211 3.83658 11.9775 3.84495 12.3735 3.86726Z" fill="#E5C185"/>
<path d="M7.70156 4.98324C6.93172 5.01672 6.53286 5.10597 6.09215 5.33748C5.85507 5.463 5.55662 5.73077 5.40321 5.96228C5.16333 6.32209 5.02666 6.82695 4.97924 7.5159C4.94019 8.0849 4.94019 11.9201 4.97924 12.4864C5.02108 13.1223 5.11312 13.5072 5.31395 13.8949C5.45341 14.1655 5.81881 14.5309 6.09215 14.6731C6.73368 15.0051 7.20507 15.0497 9.96086 15.0497C12.7473 15.0525 13.2299 15.0051 13.8658 14.6787C14.128 14.5448 14.4795 14.2129 14.6301 13.9563C14.7668 13.7248 14.9006 13.3036 14.9592 12.9326C15.0038 12.6398 15.0094 12.3776 15.0094 10.0039C15.0094 7.62468 15.0038 7.36806 14.9592 7.07519C14.856 6.42808 14.6719 6.02085 14.3149 5.66382C14.1308 5.47973 14.0416 5.41279 13.824 5.3068C13.5255 5.16176 13.1462 5.05577 12.7445 5.01114C12.4098 4.97209 8.43235 4.94977 7.70156 4.98324ZM13.5897 6.05432C13.8296 6.16589 14.0192 6.45598 14.0192 6.71259C14.0192 6.98315 13.7989 7.3067 13.5506 7.40154C13.2494 7.5159 12.8784 7.41269 12.6888 7.16445C12.4684 6.87436 12.4991 6.4504 12.7585 6.18821C12.9705 5.97901 13.3108 5.92323 13.5897 6.05432ZM10.8088 6.94689C11.336 7.09472 11.7822 7.35133 12.1839 7.73904C13.1741 8.69296 13.4279 10.135 12.8226 11.3846C12.4182 12.2214 11.6679 12.8294 10.7363 13.0749C10.4295 13.1558 9.79908 13.1781 9.45879 13.1167C7.75177 12.8183 6.60817 11.2312 6.86478 9.52137C6.9624 8.8659 7.24412 8.30805 7.72387 7.80877C8.19805 7.31786 8.78658 7.00267 9.46995 6.87994C9.53968 6.866 9.81303 6.86042 10.0724 6.866C10.4797 6.87436 10.5829 6.88552 10.8088 6.94689Z" fill="#E5C185"/>
<path d="M9.70983 7.97047C9.35001 8.02625 9.09061 8.13224 8.78937 8.34423C7.99443 8.90766 7.7183 9.97037 8.1339 10.8601C8.37935 11.3845 8.78379 11.7499 9.33328 11.9452C9.63452 12.0512 10.145 12.0707 10.4797 11.987C11.3583 11.7694 11.9747 11.0247 12.0305 10.1154C12.0723 9.42925 11.7432 8.7403 11.1881 8.34423C10.7614 8.0402 10.1924 7.89516 9.70983 7.97047Z" fill="#E5C185"/>
</svg>
