<svg width="20" height="21" viewBox="0 0 20 21" fill="none" xmlns="http://www.w3.org/2000/svg">
<path d="M9.83649 0.0028643C9.79107 0.0033527 9.69192 0.00628306 9.61671 0.00921342C7.35789 0.095659 5.19529 0.944975 3.48005 2.41895C3.18115 2.67584 2.86907 2.97962 2.59948 3.27608C1.57287 4.40426 0.812935 5.7659 0.390963 7.23255C0.0222263 8.51507 -0.0871738 9.85131 0.069112 11.1739C0.277168 12.9384 0.953104 14.619 2.02366 16.0334C2.90668 17.2002 4.0334 18.1584 5.32373 18.8412C6.53251 19.481 7.88292 19.8712 9.23332 19.9723C9.46482 19.9894 9.54834 19.9933 9.794 19.9991C10.2936 20.0104 10.826 19.9806 11.3285 19.9132C13.5849 19.6104 15.6713 18.5472 17.24 16.9003C18.777 15.2866 19.7304 13.209 19.9506 10.9932C20.0244 10.2523 20.0156 9.50749 19.9238 8.76952C19.725 7.16417 19.137 5.62671 18.2159 4.29975C17.6098 3.42699 16.865 2.65289 16.0181 2.01504C14.4757 0.853157 12.6311 0.162569 10.7058 0.0263072C10.4934 0.0116554 10.0958 -0.00250802 9.96347 0.000422337C9.93954 0.00139912 9.8824 0.00237591 9.83649 0.0028643ZM8.29707 5.34833C8.39524 5.53489 8.52027 5.7913 8.56667 5.90168C8.57692 5.92561 8.58571 5.94612 8.58669 5.9471C8.58718 5.94808 8.61795 5.94417 8.65555 5.9388C8.95445 5.89484 9.30951 5.86358 9.66555 5.84991C9.83356 5.84356 10.3493 5.84649 10.4983 5.85528C10.8133 5.87286 11.2167 5.91193 11.414 5.94319C11.4301 5.94563 11.4443 5.94612 11.4462 5.94417C11.4477 5.94221 11.4721 5.88898 11.5 5.82598C11.5752 5.65602 11.751 5.30535 11.773 5.2824C11.7774 5.27751 11.9439 5.3073 12.1393 5.34735C12.8762 5.49924 13.602 5.73416 14.2853 6.04185L14.3624 6.07701L14.4249 6.16981C15.2362 7.38542 15.7651 8.6108 16.0435 9.92115C16.1905 10.6137 16.2613 11.3028 16.2613 12.0408C16.2613 12.3993 16.2491 12.6737 16.2164 13.0435L16.2056 13.1665L16.1006 13.2417C15.6152 13.5865 15.1658 13.8566 14.652 14.1116C14.298 14.2874 13.9795 14.4241 13.602 14.5633C13.495 14.6029 13.1336 14.725 13.0643 14.7455L13.0389 14.7528L12.9856 14.6791C12.8352 14.4715 12.6975 14.2591 12.5666 14.0334C12.4797 13.883 12.3605 13.6613 12.3649 13.6574C12.3659 13.6564 12.3908 13.6466 12.4201 13.6354C12.7165 13.5231 13.0369 13.3707 13.3422 13.1973C13.3871 13.1714 13.4237 13.1489 13.4237 13.147C13.4237 13.145 13.4022 13.1275 13.3764 13.1074C13.35 13.0879 13.2958 13.0454 13.2552 13.0137C13.2152 12.9814 13.1795 12.9531 13.1766 12.9507C13.1732 12.9482 13.1522 12.9555 13.1229 12.9692C13.0408 13.0073 12.8748 13.0776 12.7546 13.125C12.0382 13.4083 11.2992 13.5782 10.5471 13.6329C10.3439 13.6476 10.2008 13.6515 9.93905 13.6486C9.68606 13.6461 9.62111 13.6432 9.43112 13.6281C8.60281 13.5607 7.76424 13.3472 6.98183 13.0044C6.92664 12.98 6.87487 12.9575 6.86657 12.9536C6.85143 12.9472 6.85094 12.9477 6.79575 12.9927C6.76498 13.0176 6.70784 13.0625 6.66828 13.0923L6.596 13.147L6.61456 13.1582C6.64533 13.1778 6.74398 13.2329 6.84166 13.2857C7.0756 13.4117 7.31443 13.5221 7.56058 13.6183C7.6143 13.6393 7.65923 13.6574 7.66021 13.6579C7.66216 13.6598 7.57718 13.8195 7.51516 13.9309C7.37157 14.1873 7.17426 14.495 7.01358 14.7118C6.98574 14.7494 6.98574 14.7499 6.96767 14.7465C6.9579 14.7445 6.85582 14.7118 6.74008 14.6732C5.70712 14.3299 4.79822 13.8659 3.89128 13.2193C3.85074 13.19 3.81704 13.1641 3.81704 13.1616C3.81704 13.1592 3.81167 13.0928 3.80483 13.0141C3.73401 12.1639 3.75843 11.3268 3.87858 10.5292C4.10324 9.03081 4.67368 7.58712 5.58258 6.21425L5.67635 6.07262L5.7418 6.0438C6.13398 5.87091 6.41383 5.76249 6.76694 5.64625C7.1723 5.51292 7.56937 5.40987 8.00013 5.32537C8.1022 5.30584 8.24042 5.28044 8.25263 5.27946C8.25849 5.27898 8.27119 5.29949 8.29707 5.34833Z" fill="#E5C185"/>
<path d="M7.85108 9.23776C7.84425 9.23874 7.81934 9.24216 7.79492 9.24509C7.57905 9.27195 7.35976 9.38379 7.19126 9.5518C7.02863 9.71492 6.91386 9.92298 6.85671 10.1608C6.81276 10.3425 6.80934 10.5681 6.84695 10.7547C6.93925 11.2099 7.25427 11.5728 7.65817 11.6895C7.90432 11.7608 8.1661 11.7374 8.39564 11.6236C8.50846 11.5679 8.58514 11.5132 8.67842 11.4228C8.8772 11.2299 9.0032 10.9799 9.04862 10.6878C9.06083 10.6067 9.06621 10.4133 9.0579 10.3327C9.02762 10.0358 8.90699 9.7706 8.71114 9.56987C8.54069 9.39551 8.34485 9.29002 8.11482 9.249C8.07379 9.24167 8.03228 9.23825 7.96097 9.23727C7.90725 9.2363 7.85792 9.2363 7.85108 9.23776Z" fill="#E5C185"/>
<path d="M11.961 9.24212C11.7373 9.27142 11.5351 9.36764 11.3676 9.52539C11.1507 9.72905 11.0169 10.0011 10.9759 10.3215C10.9656 10.4016 10.9681 10.5911 10.9803 10.6707C11.0047 10.8279 11.0418 10.9486 11.1063 11.0785C11.2274 11.3241 11.4106 11.5117 11.6387 11.6235C11.9981 11.7998 12.404 11.7573 12.7327 11.5092C12.7791 11.4741 12.8938 11.3608 12.9314 11.3129C13.1507 11.0331 13.2499 10.657 13.201 10.2858C13.1659 10.0123 13.0394 9.75005 12.8528 9.56202C12.6403 9.3481 12.3703 9.23333 12.0841 9.23528C12.043 9.23577 11.9879 9.2387 11.961 9.24212Z" fill="#E5C185"/>
</svg>
