<svg width="123" height="35" viewBox="0 0 123 35" fill="none" xmlns="http://www.w3.org/2000/svg">
<path d="M2.58689 0.184234C1.44184 0.596865 0.513419 1.54592 0.152367 2.68065C-0.00236994 3.18613 -0.0126857 4.43434 0.00794583 17.7211L0.0388932 32.2147L0.327735 32.8131C0.709419 33.5764 1.46247 34.3295 2.22584 34.7112L2.82415 35H61.1599H119.496L120.115 34.7008C120.899 34.3088 121.59 33.6177 121.982 32.8337L122.281 32.2147V17.5147V2.81476L121.992 2.21644C121.61 1.45307 120.857 0.700023 120.094 0.318339L119.496 0.0294972L61.3146 0.00886598C4.27868 -0.0117656 3.12331 -0.0117659 2.58689 0.184234ZM40.8584 5.60002C41.106 5.69286 41.4774 5.89918 41.6734 6.05391L42.0241 6.35307L41.725 6.67286L41.4258 6.98233L41.1267 6.73476C40.1673 5.93013 38.6199 6.28086 38.0629 7.42591C37.4233 8.75665 38.2382 10.2937 39.6721 10.4691C40.126 10.5206 40.3014 10.4794 40.7759 10.2524C41.2195 10.0358 41.3845 9.88107 41.5496 9.53033C41.6734 9.29307 41.7662 9.06612 41.7662 9.02486C41.7662 8.9836 41.3227 8.95265 40.7862 8.95265H39.8062V8.54002V8.12739H41.1885C42.7669 8.12739 42.7772 8.1377 42.6431 8.9836C42.4161 10.335 41.5083 11.1912 40.1673 11.2943C38.6096 11.4181 37.3201 10.4691 37.0003 8.93202C36.5464 6.75539 38.7128 4.87791 40.8584 5.60002ZM65.7607 5.73412C67.5144 6.6316 67.9064 9.01454 66.5447 10.4278C65.9052 11.0983 65.4719 11.2737 64.461 11.2737C63.4087 11.2737 62.9548 11.0777 62.3153 10.3453C60.902 8.74633 61.6035 6.19834 63.6357 5.53813C64.0999 5.38339 65.3068 5.49686 65.7607 5.73412ZM46.821 5.96107V6.3737H45.5831H44.3452V7.14739V7.92107H45.4799H46.6146V8.38528V8.84949H45.4799H44.3349L44.3658 9.59223L44.3968 10.3453L45.614 10.3762L46.821 10.4072V10.8095V11.2221H45.1704H43.5199V8.38528V5.54844H45.1704H46.821V5.96107ZM51.3599 5.96107V6.3737H50.5862H49.8125V8.79791V11.2221H49.3999H48.9873L48.9666 8.81854L48.9357 6.42528L48.193 6.39434L47.4399 6.36339V5.96107V5.54844H49.3999H51.3599V5.96107ZM54.7641 8.38528V11.2221H54.3515H53.9389V8.38528V5.54844H54.3515H54.7641V8.38528ZM59.4062 5.96107V6.3737H58.6841H57.962V8.79791V11.2221H57.4978H57.0336V8.79791V6.3737H56.2599H55.4862V5.96107V5.54844H57.4462H59.4062V5.96107ZM70.4028 7.50844L71.6304 9.46844L71.6614 7.50844L71.682 5.54844H72.1462H72.6104V8.38528V11.2221H72.1668H71.7129L70.4028 9.10739C69.6704 7.9417 69.0721 6.99265 69.0618 6.99265C69.0618 6.99265 69.0618 7.9417 69.0824 9.10739L69.1134 11.2221H68.6492H68.1746V8.38528V5.54844H68.6801H69.1856L70.4028 7.50844ZM10.561 6.03328C10.726 6.12612 14.1199 8.03455 18.0915 10.2937C22.0631 12.5425 26.0656 14.812 26.9837 15.3381C27.9018 15.8539 28.7993 16.4006 28.9643 16.5451C29.4182 16.9267 29.5317 17.4425 29.2945 17.979C29.0572 18.5051 29.0262 18.5257 26.2616 20.0937L24.0025 21.3625L8.77636 28.8931L8.61131 28.5733C8.46689 28.2844 8.44626 27.16 8.44626 17.4941C8.44626 6.88949 8.44626 6.73476 8.65257 6.39434C9.03426 5.77539 9.76668 5.63097 10.561 6.03328ZM44.3761 14.9874C45.1395 15.1834 46.0473 15.6476 46.5631 16.1015L46.9757 16.4625L46.4186 17.0402L45.8513 17.6076L45.5109 17.3497C44.1285 16.2975 42.0551 16.1943 40.6109 17.1124C38.4961 18.4638 37.9288 21.3729 39.3936 23.4154C40.2395 24.612 41.4258 25.1897 42.9525 25.1794C44.5928 25.1691 45.81 24.4985 46.3877 23.271C46.5631 22.9099 46.7384 22.4663 46.7694 22.2806L46.8416 21.9505H44.8713H42.901V21.1253V20.3H45.6862H48.4715L48.4818 20.7849C48.5437 22.8996 48.0795 24.22 46.8829 25.3341C45.7481 26.3863 44.6134 26.8196 42.9525 26.8196C41.2401 26.8299 39.7753 26.2316 38.5787 25.0453C37.413 23.9002 36.8147 22.487 36.8147 20.888C36.8147 19.1137 37.3201 17.9274 38.6199 16.6379C39.5071 15.7508 40.353 15.2556 41.4361 14.9874C42.2304 14.8017 43.654 14.8017 44.3761 14.9874ZM76.4273 20.9705V26.7061L75.5814 26.6752L74.7252 26.6442L74.6942 20.9396L74.6736 15.2453H75.5504H76.4273V20.9705ZM93.8816 15.627C94.6656 15.9983 95.2845 16.5863 95.6352 17.2878C95.8312 17.7004 95.8725 17.9377 95.8725 18.8042C95.8725 19.7533 95.8519 19.8771 95.5734 20.3825C95.0266 21.3625 94.0569 22.0331 92.8809 22.2497C92.5508 22.3116 91.7256 22.3632 91.055 22.3632H89.8378V24.5295V26.6958H89.0125H88.1873V20.9602V15.235L90.694 15.2659L93.1904 15.2969L93.8816 15.627ZM98.6062 20.9705V26.6958H97.7809H96.9557V20.9705V15.2453H97.7809H98.6062V20.9705ZM70.8361 19.2891C71.0321 19.351 71.3416 19.5366 71.5376 19.7017L71.8883 20.0112V19.6914V19.3716H72.7239H73.5492L73.5182 23.467C73.4873 27.5107 73.4769 27.583 73.2397 28.1916C72.8993 29.0272 72.1359 29.7802 71.3209 30.0897C70.7948 30.2857 70.5576 30.3166 69.722 30.2857C68.9071 30.2444 68.6492 30.1928 68.1953 29.9659C67.5454 29.6255 66.9264 29.0272 66.6376 28.4701L66.4313 28.0678L67.0708 27.7893C67.4216 27.6448 67.762 27.5211 67.8136 27.5211C67.8755 27.5314 68.0405 27.7067 68.1953 27.9337C68.5769 28.4907 69.2062 28.8002 69.9283 28.8002C71.1559 28.7899 71.8883 27.9543 71.8883 26.572V25.9324L71.6098 26.211C71.1559 26.6442 70.5782 26.8402 69.7633 26.8299C68.3913 26.8299 67.1224 25.984 66.4828 24.6326C66.194 24.024 66.1631 23.8693 66.1631 22.9821C66.1631 22.1362 66.2043 21.9196 66.4416 21.4141C67.2668 19.6501 69.1134 18.763 70.8361 19.2891ZM82.3692 19.4851C82.7199 19.6501 83.1738 19.9699 83.3801 20.1969C83.7721 20.6404 84.4529 21.899 84.3498 22.0021C84.3188 22.0434 83.6174 22.3425 82.8127 22.683C81.9978 23.0234 80.8734 23.4876 80.3266 23.7145C79.7696 23.9518 79.3157 24.1994 79.3157 24.2613C79.3157 24.4573 79.9553 25.0246 80.3679 25.1897C81.1416 25.5198 82.1113 25.2825 82.7302 24.6223L83.0294 24.3025L83.6483 24.6945C83.9887 24.9215 84.2673 25.1484 84.2673 25.2103C84.2673 25.2825 84.0094 25.5714 83.6999 25.8499C82.7921 26.6855 81.5542 27.0362 80.3885 26.799C79.099 26.5307 78.1809 25.819 77.6342 24.6533C77.335 24.024 77.3041 23.8796 77.3144 22.9821C77.3144 22.2187 77.366 21.868 77.5517 21.4141C78.1294 19.939 79.6974 18.9796 81.2757 19.1343C81.5336 19.1653 82.0287 19.32 82.3692 19.4851ZM104.331 19.3819C105.023 19.6398 105.611 20.1453 105.93 20.7745C106.178 21.2697 106.188 21.3419 106.219 23.9312L106.25 26.5926H105.425H104.589V26.1697V25.7467L104.331 26.0562C103.475 27.0775 101.536 27.1084 100.381 26.1284C99.2974 25.2206 99.3283 23.4876 100.432 22.5798C101.299 21.8577 102.98 21.5895 104.063 21.9918C104.62 22.1981 104.589 22.1981 104.589 21.9505C104.589 20.7539 102.598 20.1762 101.598 21.084L101.206 21.4451L100.525 21.1665C100.154 21.0118 99.8441 20.8158 99.8441 20.7436C99.8441 20.5063 100.659 19.7017 101.144 19.4747C102.052 19.0312 103.3 18.9899 104.331 19.3819ZM54.6816 19.4954C55.4243 19.8461 56.1464 20.5579 56.4972 21.311C56.7447 21.8371 56.7757 22.0227 56.7757 23.0337C56.7757 24.1272 56.7654 24.1891 56.425 24.8183C54.8879 27.6448 50.8441 27.5314 49.4618 24.6326C49.173 24.024 49.142 23.8693 49.142 22.9821C49.142 22.1362 49.1833 21.9196 49.4205 21.4141C49.8847 20.4032 50.7925 19.6089 51.8757 19.2581C52.0201 19.2065 52.5772 19.1859 53.1136 19.1962C53.9182 19.2169 54.1967 19.2787 54.6816 19.4954ZM63.2437 19.5573C64.626 20.2381 65.3172 21.3935 65.3275 23.0337C65.3378 24.2613 65.018 25.004 64.1412 25.8086C63.3468 26.5411 62.6247 26.8299 61.521 26.8402C60.5203 26.8505 59.8704 26.6442 59.1483 26.0975C57.0748 24.5295 57.0955 21.2903 59.1999 19.8358C59.922 19.3303 60.5822 19.155 61.6241 19.1859C62.4391 19.2169 62.6454 19.2581 63.2437 19.5573ZM109.231 21.7958C109.768 23.1265 110.242 24.22 110.273 24.22C110.304 24.22 110.769 23.1265 111.295 21.7958L112.264 19.3716H113.182C114.018 19.3716 114.101 19.3922 114.039 19.547C113.997 19.6501 112.966 22.064 111.728 24.9112L109.489 30.1H108.592H107.694L107.932 29.5533C108.066 29.2644 108.458 28.3979 108.809 27.6448L109.427 26.2625L107.942 22.879C107.117 21.0118 106.446 19.4644 106.446 19.4335C106.446 19.4025 106.849 19.3716 107.354 19.3716H108.251L109.231 21.7958Z" fill="#E5C185"/>
<path d="M63.7388 6.43543C62.3358 7.04406 62.047 9.02469 63.2127 10.015C64.5434 11.1291 66.4621 10.1697 66.4621 8.38511C66.4621 6.86869 65.0592 5.86806 63.7388 6.43543Z" fill="#E5C185"/>
<path d="M89.8378 18.7526V20.7126H91.2717C92.066 20.7126 92.8397 20.6611 93.0047 20.5992C93.6649 20.3516 94.2736 19.4748 94.2736 18.7526C94.2736 17.948 93.634 17.1124 92.85 16.8958C92.6437 16.8442 91.8803 16.7926 91.1582 16.7926H89.8378V18.7526Z" fill="#E5C185"/>
<path d="M69.3816 20.7437C68.4222 21.0428 67.8239 21.93 67.8342 23.0338C67.8549 25.3651 70.7123 26.2213 71.7233 24.2098C72.0534 23.5289 72.0947 22.5386 71.7955 21.899C71.5582 21.3729 70.9806 20.8571 70.4751 20.723C70.0006 20.5889 69.8871 20.5889 69.3816 20.7437Z" fill="#E5C185"/>
<path d="M80.4195 20.7127C79.6974 20.9293 79.1197 21.6411 78.965 22.5076C78.9031 22.8171 78.9237 22.8893 79.0269 22.848C79.6252 22.6005 81.7606 21.7133 82.0494 21.5895C82.3795 21.4554 82.4105 21.4141 82.3073 21.2181C82.0597 20.7643 81.1004 20.5064 80.4195 20.7127Z" fill="#E5C185"/>
<path d="M102.052 23.3328C101.402 23.6217 101.082 24.4057 101.433 24.8596C101.608 25.0968 102.237 25.3547 102.629 25.3547C103.032 25.3547 103.64 25.1072 103.95 24.808C104.218 24.5604 104.589 23.9002 104.589 23.6629C104.589 23.2709 102.763 23.0234 102.052 23.3328Z" fill="#E5C185"/>
<path d="M52.3605 20.7436C51.3909 21.0531 50.8441 21.8577 50.8441 22.9822C50.8441 23.7971 51.0814 24.3542 51.5972 24.8081C52.9279 25.9737 54.9601 25.0866 55.1458 23.2607C55.3212 21.5895 53.846 20.2588 52.3605 20.7436Z" fill="#E5C185"/>
<path d="M60.9331 20.7022C60.3863 20.8775 59.9221 21.2489 59.6333 21.7234C59.396 22.1361 59.3547 22.3218 59.3547 22.9923C59.3547 23.6731 59.396 23.8279 59.6642 24.2818C60.0975 24.9935 60.8712 25.3959 61.6655 25.3133C62.336 25.2514 62.9034 24.9007 63.2954 24.3024C63.5533 23.9207 63.5842 23.7866 63.5842 22.9716C63.5842 22.1361 63.5636 22.0432 63.2747 21.6203C62.7486 20.8775 61.6861 20.4649 60.9331 20.7022Z" fill="#E5C185"/>
</svg>
