<svg width="118" height="35" viewBox="0 0 118 35" fill="none" xmlns="http://www.w3.org/2000/svg">
<path d="M3.88733 0.336348C2.47157 0.735035 0.815859 2.19689 0.335942 3.43725C0.0719876 4.12388 0 6.87039 0 17.5907V30.9024L0.623892 31.9877C1.39176 33.361 2.85551 34.4241 4.43924 34.7342C6.16694 35.0886 111.413 35.0886 113.141 34.7342C114.724 34.4241 116.188 33.361 116.956 31.9877L117.58 30.9024V17.4799V4.05743L116.956 2.97211C116.188 1.59886 114.724 0.535692 113.141 0.225602C112.277 0.0484072 96.2714 -0.0180407 58.4779 0.00410862C11.9499 0.00410862 4.89516 0.0484072 3.88733 0.336348ZM58.9098 9.72765C58.9098 12.452 58.8859 12.6071 58.4299 12.6071C57.974 12.6071 57.95 12.452 57.95 9.8827C57.95 7.11403 57.998 6.84824 58.5979 6.84824C58.8379 6.84824 58.9098 7.46842 58.9098 9.72765ZM74.5072 9.72765C74.5072 12.452 74.4832 12.6071 74.0272 12.6071C73.7633 12.6071 73.5473 12.4963 73.5473 12.3413C73.5473 12.1419 73.4753 12.1419 73.2594 12.3413C73.0914 12.4963 72.5635 12.6071 72.0596 12.6071C70.9078 12.6071 70.3079 11.854 70.3319 10.4143C70.3559 9.63905 70.4999 9.32896 71.0038 8.90813C71.7716 8.3101 72.2755 8.2658 73.0194 8.75308C73.5473 9.08532 73.5473 9.08532 73.5473 7.97786C73.5473 7.00329 73.6193 6.84824 74.0272 6.84824C74.4832 6.84824 74.5072 7.00329 74.5072 9.72765ZM95.6235 7.88926C95.7195 8.66448 95.8155 8.79738 96.1034 8.62019C96.6793 8.2658 97.5192 8.37654 98.0231 8.84168C98.407 9.19607 98.503 9.57261 98.503 10.9459C98.503 12.452 98.455 12.6071 98.0231 12.6071C97.6152 12.6071 97.5672 12.4299 97.4952 10.9902L97.4232 9.39541H96.5834H95.7435L95.6715 10.9902C95.5995 12.4299 95.5515 12.6071 95.1436 12.6071C94.6877 12.6071 94.6637 12.4299 94.6637 9.7055C94.6637 7.06973 94.7117 6.82609 95.0956 6.89254C95.3836 6.93684 95.5275 7.24693 95.6235 7.88926ZM38.4174 7.62347C39.7851 8.44299 40.0251 10.6579 38.8733 11.8983C38.3934 12.4299 38.1294 12.4963 36.4977 12.5628L34.674 12.6514V9.8384V7.00329L36.2338 7.11403C37.0976 7.18048 38.0814 7.40197 38.4174 7.62347ZM22.1242 8.0443C21.8842 9.41756 21.2123 10.4143 20.0605 11.0788C19.4606 11.4331 18.7408 11.7211 18.4288 11.7211C17.9729 11.7211 17.8769 11.6103 17.8769 10.9902C17.8769 9.41756 20.0365 7.33553 21.6923 7.29123C22.1962 7.29123 22.2442 7.35768 22.1242 8.0443ZM92.5041 8.06645C92.5041 8.46514 92.624 8.62019 92.984 8.62019C93.2479 8.62019 93.4639 8.77523 93.4639 8.95243C93.4639 9.12962 93.2479 9.28466 92.984 9.28466C92.5521 9.28466 92.5041 9.43971 92.5041 10.525C92.5041 11.566 92.576 11.7875 92.984 11.8761C93.7278 12.0533 93.5839 12.6071 92.792 12.6071C91.7842 12.6071 91.5442 12.2305 91.5442 10.6801C91.5442 9.59475 91.4722 9.28466 91.1843 9.28466C90.9923 9.28466 90.8243 9.12962 90.8243 8.95243C90.8243 8.77523 90.9923 8.62019 91.1843 8.62019C91.4003 8.62019 91.5442 8.42084 91.5442 8.06645C91.5442 7.66777 91.6642 7.51272 92.0241 7.51272C92.3841 7.51272 92.5041 7.66777 92.5041 8.06645ZM44.1044 8.84168C45.3522 9.7498 45.0642 12.0976 43.6245 12.5628C42.0168 13.0722 40.673 12.1641 40.673 10.5693C40.673 8.84168 42.6886 7.82281 44.1044 8.84168ZM46.648 9.21822C46.7679 9.68335 46.9359 10.3921 47.0319 10.813C47.2479 11.7211 47.4398 11.4774 47.8718 9.77195C48.1597 8.59804 48.7116 8.06645 49.0715 8.59804C49.1675 8.75308 49.3835 9.41756 49.5515 10.082C49.7194 10.7465 49.9354 11.2781 50.0314 11.2781C50.1274 11.2781 50.3433 10.6801 50.5113 9.92699C50.7992 8.70878 51.2552 8.11075 51.6391 8.48729C51.7111 8.55374 51.5191 9.48401 51.1832 10.5472C50.7033 12.1419 50.4873 12.5185 50.0794 12.5628C49.6714 12.6292 49.5275 12.4742 49.3115 11.6768C48.7116 9.50616 48.6876 9.50616 48.2557 10.813C48.0397 11.4774 47.8718 12.1641 47.8718 12.3191C47.8718 12.4742 47.6078 12.6071 47.3198 12.6071C46.8159 12.6071 46.696 12.4077 46.24 10.8573C45.6161 8.79738 45.5921 8.39869 46.0721 8.39869C46.264 8.39869 46.504 8.75308 46.648 9.21822ZM53.6308 8.75308C53.6308 9.06317 53.6788 9.06317 54.1587 8.75308C55.6224 7.80066 56.5822 8.64233 56.7022 10.968C56.7982 12.5185 56.7742 12.6071 56.2943 12.6071C55.8384 12.6071 55.7904 12.4742 55.7904 11.3003C55.7904 9.57261 55.6464 9.28466 54.8066 9.28466C53.9187 9.28466 53.6308 9.81625 53.6308 11.3667C53.6308 12.3191 53.5588 12.6071 53.2708 12.6071C52.9829 12.6071 52.9109 12.2305 52.9109 10.5029C52.9109 8.77523 52.9829 8.39869 53.2708 8.39869C53.4628 8.39869 53.6308 8.55374 53.6308 8.75308ZM63.757 9.06317C64.4049 9.68335 64.4769 9.86055 64.3569 10.7465C64.1649 12.3856 62.9652 13.0943 61.4054 12.4963C59.9657 11.9426 59.7257 9.77195 60.9975 8.84168C61.9093 8.19935 62.8932 8.2658 63.757 9.06317ZM68.6282 8.95243C69.1561 9.41756 69.2281 9.68335 69.2281 11.0566C69.2281 12.452 69.1801 12.6071 68.7482 12.6071C68.4842 12.6071 68.2682 12.4963 68.2682 12.3413C68.2682 12.1419 68.1962 12.1419 67.9803 12.3413C67.8123 12.4963 67.3084 12.6071 66.8285 12.6071C65.7967 12.6071 65.3887 12.297 65.3887 11.4774C65.3887 10.7022 65.8686 10.37 67.1884 10.2149C68.3402 10.1042 68.6282 9.68335 67.8123 9.30681C67.5244 9.15177 67.1404 9.15177 66.6365 9.32896C65.6767 9.6612 65.3407 9.37326 66.0846 8.81953C66.8525 8.24365 67.9323 8.28795 68.6282 8.95243ZM81.7539 9.06317C82.4018 9.68335 82.4738 9.86055 82.3538 10.7465C82.1618 12.3856 80.962 13.0943 79.4023 12.4963C77.9626 11.9426 77.7226 9.77195 78.9944 8.84168C79.9062 8.19935 80.8901 8.2658 81.7539 9.06317ZM84.3455 8.73093C84.3455 8.99672 84.4414 8.99672 85.0174 8.68663C85.9052 8.2215 86.937 8.44299 87.225 9.19607C87.3689 9.50616 87.4649 10.3921 87.4649 11.1895C87.4649 12.452 87.4169 12.6071 86.985 12.6071C86.5771 12.6071 86.5291 12.4299 86.4571 10.9902L86.3851 9.39541H85.5453H84.7054L84.6334 10.9902C84.5614 12.4299 84.5134 12.6071 84.1055 12.6071C83.6736 12.6071 83.6256 12.452 83.6256 10.5029C83.6256 8.77523 83.6976 8.39869 83.9855 8.39869C84.1775 8.39869 84.3455 8.55374 84.3455 8.73093ZM102.918 8.88598C103.278 9.17392 103.614 9.72765 103.686 10.1042L103.854 10.8351H102.246C101.119 10.8351 100.663 10.9237 100.663 11.1231C100.663 11.8761 101.91 12.2084 102.822 11.6768C103.494 11.2781 103.71 11.6546 103.134 12.1862C102.438 12.8286 101.047 12.8064 100.279 12.1419C99.8228 11.7654 99.7028 11.411 99.7028 10.6136C99.7028 9.55046 99.9668 9.06317 100.783 8.66448C101.527 8.2658 102.27 8.35439 102.918 8.88598ZM16.1252 12.3856C17.8049 12.9171 18.1169 12.9171 19.7966 12.3856C22.0282 11.6546 23.8039 11.8983 25.2676 13.1608L26.1555 13.9139L25.6276 14.2683C25.3156 14.4676 24.7877 15.0656 24.4518 15.6194C23.8999 16.4832 23.8279 16.7933 23.9239 18.0115C24.0199 19.5619 24.7397 20.7137 26.0595 21.4446L26.7314 21.8212L26.1315 23.0172C25.3396 24.612 23.9719 26.2732 23.132 26.6719C22.2682 27.0927 21.2123 27.0927 20.1085 26.6719C19.0287 26.251 17.445 26.251 16.3652 26.6719C15.8853 26.8491 15.0934 27.0041 14.5895 27.0041C12.8378 27.0041 10.3182 23.8811 9.35839 20.4701C8.23058 16.4389 9.81431 13.1386 13.3177 12.1419C14.2775 11.8761 14.6855 11.9204 16.1252 12.3856ZM76.0669 16.0402C77.0027 16.461 77.7466 17.3027 77.9866 18.2108C78.1545 18.7867 78.1065 18.8089 77.2427 18.8089C76.4508 18.8089 76.2349 18.6981 75.8989 18.1444C75.395 17.3249 74.4592 16.9705 73.1154 17.1034C71.7956 17.2363 71.1477 17.7678 71.1477 18.7203C71.1477 19.3626 71.2677 19.5176 72.0596 19.8942C72.5395 20.1157 73.5713 20.4258 74.3152 20.5808C77.1947 21.1788 78.5625 22.5078 78.2265 24.3462C77.5306 28.1116 69.804 28.2445 68.8441 24.5012C68.7002 23.9254 68.7242 23.9032 69.612 23.9032C70.4039 23.9032 70.6198 24.0139 70.9558 24.5677C71.4597 25.3651 72.2276 25.6751 73.7633 25.6751C75.299 25.6751 76.1869 25.055 76.1869 23.9918C76.1869 23.3716 76.0429 23.1501 75.419 22.7957C74.9871 22.5521 74.0512 22.242 73.3074 22.1091C69.804 21.4446 68.4122 19.9163 69.372 17.7235C70.0199 16.1952 71.6756 15.42 73.9553 15.5972C74.6271 15.6415 75.587 15.8409 76.0669 16.0402ZM42.2567 21.4003L44.4403 27.0041H43.4325H42.4007L41.8728 25.5644L41.3449 24.1025L38.9453 24.169L36.5217 24.2354L35.9938 25.5644C35.4659 26.8712 35.4419 26.8934 34.4341 26.9598C33.6662 27.0041 33.4502 26.9598 33.5222 26.7383C33.5942 26.5833 34.602 24.0361 35.7778 21.0681L37.8895 15.6858L38.9693 15.7523L40.0491 15.8187L42.2567 21.4003ZM82.1858 17.8121V18.8089H83.1457C84.0575 18.8089 84.1055 18.8532 84.1055 19.4733C84.1055 20.0935 84.0575 20.1378 83.1457 20.1378H82.1858V22.5299C82.1858 25.1214 82.3538 25.5865 83.3856 25.7194C83.8416 25.7637 84.0095 25.9409 84.0575 26.3618C84.1055 26.8269 84.0095 26.982 83.5056 27.0927C82.6418 27.292 81.058 26.8491 80.7461 26.3396C80.6261 26.1181 80.5061 24.6341 80.5061 23.0394V20.1378H79.7863C79.1384 20.1378 79.0664 20.0714 79.0664 19.4733C79.0664 18.8753 79.1384 18.8089 79.7863 18.8089C80.4821 18.8089 80.5061 18.7646 80.5061 17.8121C80.5061 16.8154 80.5061 16.8154 81.346 16.8154C82.1858 16.8154 82.1858 16.8154 82.1858 17.8121ZM91.3043 19.1411C92.816 19.8499 93.4639 21.0459 93.4639 23.0837C93.4639 25.6751 91.9522 27.1148 89.2646 27.1148C86.4331 27.1148 84.9214 25.4758 85.1133 22.5742C85.2093 20.9573 85.5933 20.2486 86.793 19.4069C87.9688 18.6095 89.8885 18.4988 91.3043 19.1411ZM106.59 19.2961C107.525 19.8056 108.341 21.3117 108.341 22.5299V23.4602H105.222H102.102V23.9918C102.102 25.6308 105.294 26.4061 106.254 25.0107C106.446 24.7227 106.806 24.5677 107.31 24.5677C108.293 24.5677 108.413 24.7892 107.861 25.6308C107.214 26.6276 106.086 27.0927 104.358 27.1148C101.503 27.1148 100.015 25.4537 100.231 22.4856C100.327 20.9573 100.735 20.2264 101.91 19.4069C103.182 18.5431 105.15 18.4766 106.59 19.2961ZM47.3918 19.3626V19.8942L48.2557 19.3626C49.9834 18.2773 52.455 18.7646 53.4868 20.3593C54.1347 21.4003 54.2786 23.6596 53.7507 24.8999C52.8389 27.1591 49.7914 27.8901 47.9677 26.3175L47.3918 25.8302V27.8458V29.8835H46.552H45.7121V24.3462V18.8089H46.552C47.2959 18.8089 47.3918 18.8753 47.3918 19.3626ZM57.4701 19.3847V19.9606L58.214 19.3847C58.7899 18.9418 59.1978 18.8089 60.1336 18.8089C62.2453 18.8089 63.4451 19.7613 63.949 21.799C64.8848 25.6087 61.0935 28.6653 58.19 26.4282L57.4701 25.8523V27.8679V29.8835H56.5103H55.5504V24.3462V18.8089H56.5103C57.3741 18.8089 57.4701 18.8532 57.4701 19.3847ZM96.8233 19.3847V19.9828L97.4232 19.3847C97.8311 18.9639 98.2391 18.8089 98.863 18.8089C99.6548 18.8089 99.7028 18.8532 99.7028 19.5841C99.7028 20.315 99.6548 20.3593 98.863 20.3593C98.3351 20.3593 97.8311 20.5365 97.5432 20.8023C97.1113 21.201 97.0633 21.5332 97.0633 24.1247V27.0041H96.1034H95.1436V22.9065V18.8089H95.9835C96.7273 18.8089 96.8233 18.8753 96.8233 19.3847Z" fill="#E5C185"/>
<path d="M71.3876 9.86066C71.0517 10.6359 71.0757 10.8795 71.5316 11.4554C72.2995 12.4743 73.5472 11.8762 73.5472 10.4587C73.5472 9.63917 73.1633 9.28478 72.2995 9.28478C71.7955 9.28478 71.5556 9.41768 71.3876 9.86066Z" fill="#E5C185"/>
<path d="M35.6338 9.9713V12.009L36.6176 11.8761C38.2973 11.6768 39.0172 10.6136 38.5133 9.15177C38.1774 8.2658 37.6734 7.95571 36.4976 7.95571H35.6338V9.9713Z" fill="#E5C185"/>
<path d="M41.9208 9.5506C41.5368 9.90498 41.5608 11.0789 41.9448 11.5883C42.7366 12.585 44.3683 11.2782 43.8884 10.0157C43.7205 9.5506 43.4805 9.3734 42.9526 9.3291C42.5447 9.2848 42.0887 9.39555 41.9208 9.5506Z" fill="#E5C185"/>
<path d="M61.3094 9.70554C60.9495 10.3479 61.0215 11.1895 61.4534 11.5882C61.9573 12.0755 62.9172 12.0312 63.2291 11.5218C63.5651 10.9459 63.5411 9.88274 63.1811 9.5505C62.7252 9.12966 61.5974 9.21826 61.3094 9.70554Z" fill="#E5C185"/>
<path d="M66.5165 10.9902C66.4205 11.0567 66.3485 11.3224 66.3485 11.5439C66.3485 11.8319 66.5405 11.9426 67.0204 11.9426C67.7403 11.9426 68.2682 11.5882 68.2682 11.1231C68.2682 10.813 66.8044 10.7023 66.5165 10.9902Z" fill="#E5C185"/>
<path d="M79.3304 9.70544C78.6825 10.8129 79.3064 12.0311 80.4822 11.8982C81.2501 11.8096 81.658 10.9015 81.3221 9.99338C81.0341 9.21815 79.7143 9.01881 79.3304 9.70544Z" fill="#E5C185"/>
<path d="M101.095 9.30683C100.255 9.74982 100.591 10.1707 101.742 10.1707C102.942 10.1707 103.11 9.92701 102.294 9.41758C101.67 8.99674 101.646 8.99674 101.095 9.30683Z" fill="#E5C185"/>
<path d="M38.0574 19.872C37.6255 21.0459 37.2176 22.1534 37.1456 22.2863C37.0736 22.5078 37.4815 22.5742 38.8493 22.5742C39.8571 22.5742 40.673 22.4856 40.673 22.3749C40.673 22.1977 39.0173 17.8786 38.8973 17.7678C38.8733 17.7457 38.4894 18.6759 38.0574 19.872Z" fill="#E5C185"/>
<path d="M87.7768 20.6693C87.2009 21.1344 87.1049 21.3781 87.0329 22.7292C86.9369 24.1246 86.9849 24.3239 87.5848 24.9663C88.1127 25.5643 88.4007 25.675 89.2645 25.675C90.1284 25.675 90.4163 25.5643 90.9202 24.9884C91.4481 24.4125 91.5441 24.1024 91.5441 22.8621C91.5441 21.5774 91.4721 21.3781 90.8482 20.7801C89.9364 19.9605 88.7366 19.9162 87.7768 20.6693Z" fill="#E5C185"/>
<path d="M102.726 20.7138C102.39 21.046 102.102 21.489 102.102 21.7105C102.102 22.087 102.318 22.1313 104.262 22.1313C106.278 22.1313 106.422 22.1092 106.422 21.6884C106.422 21.4226 106.158 20.9796 105.822 20.6916C105.006 19.9164 103.59 19.9386 102.726 20.7138Z" fill="#E5C185"/>
<path d="M48.9035 20.3592C47.7997 20.7801 47.1998 22.4191 47.6317 23.881C47.9437 24.9441 48.8555 25.675 49.9113 25.675C52.119 25.675 53.0548 22.2641 51.2311 20.7358C50.4872 20.1156 49.8393 20.0048 48.9035 20.3592Z" fill="#E5C185"/>
<path d="M58.4059 20.7579C57.758 21.2895 57.614 21.5774 57.518 22.6184C57.3501 24.5676 58.1899 25.675 59.8696 25.675C60.9015 25.675 62.0293 24.634 62.0533 23.6373C62.1252 21.7989 61.6693 20.6915 60.6855 20.3592C59.7017 20.0048 59.1978 20.0934 58.4059 20.7579Z" fill="#E5C185"/>
</svg>
