<svg width="20" height="20" viewBox="0 0 20 20" fill="none" xmlns="http://www.w3.org/2000/svg">
<path d="M9.50299 0.129744C9.06202 0.152358 8.67004 0.195074 8.30319 0.260403C8.25168 0.269198 8.18886 0.280505 8.16499 0.284274C8.02931 0.304375 7.47149 0.432522 7.31696 0.479006C7.27551 0.49157 7.20766 0.511671 7.1662 0.522978C6.5016 0.712685 5.69001 1.05818 5.05555 1.42252C4.26783 1.8748 3.62961 2.35849 2.98511 2.99168C2.07929 3.88117 1.37071 4.90509 0.850588 6.07474C0.677213 6.46672 0.508864 6.92402 0.405844 7.28334C0.394537 7.3248 0.374436 7.39264 0.361872 7.4341C0.311619 7.60245 0.187241 8.14644 0.162114 8.30725C0.157089 8.34494 0.145782 8.41027 0.138244 8.45173C0.0239172 9.08744 -0.0238237 9.89527 0.0113538 10.5812C0.0239172 10.8262 0.0578384 11.2559 0.0691454 11.3036C0.0716581 11.3174 0.0791961 11.3765 0.0867342 11.4355C0.126937 11.7923 0.267647 12.4896 0.361872 12.7987C0.374436 12.8401 0.398306 12.9193 0.413382 12.9746C0.634498 13.7535 1.03653 14.6442 1.51017 15.4056C2.25894 16.6079 3.28412 17.6645 4.45251 18.4384C4.78042 18.6557 4.81811 18.6783 5.06184 18.8165C6.03676 19.3706 7.12474 19.7651 8.20897 19.9598C8.26424 19.9698 8.33586 19.9824 8.36978 19.9887L8.42882 20V16.5099V13.0185H7.15992H5.89102L5.89353 11.5637L5.8973 10.1101H7.16243H8.42757L8.43259 8.79723C8.43636 7.54214 8.43762 7.4743 8.464 7.26449C8.56451 6.44787 8.81578 5.80588 9.24168 5.2732C9.40123 5.07344 9.64245 4.84227 9.82964 4.7091C9.93392 4.63498 10.0608 4.5508 10.0671 4.5508C10.0709 4.5508 10.1035 4.53321 10.14 4.51185C10.2405 4.45155 10.4339 4.35732 10.5332 4.31963C10.5822 4.30079 10.6387 4.27817 10.6588 4.26938C10.8347 4.19274 11.2342 4.09726 11.5571 4.05455C11.9252 4.00555 12.571 4.00304 13.0961 4.04826C13.7356 4.10354 14.4203 4.18772 14.4567 4.21536C14.468 4.22541 14.4718 4.4817 14.4693 5.45411L14.4655 6.68029L13.6866 6.68783C13.2054 6.69286 12.8813 6.7004 12.8386 6.70919C12.5546 6.76573 12.4089 6.81095 12.2707 6.8901C12.1639 6.95041 12.0169 7.0572 11.9717 7.10996C11.8184 7.28082 11.733 7.42782 11.6652 7.6326C11.5747 7.90774 11.5772 7.86879 11.5734 9.04849L11.5684 10.1101L12.9479 10.1063C13.7155 10.1051 14.3311 10.1088 14.3374 10.1151C14.3424 10.1202 14.3386 10.1767 14.3286 10.2433C14.3173 10.3086 14.2859 10.5134 14.2582 10.7006C14.2306 10.8865 14.1992 11.09 14.1891 11.1529C14.1464 11.4104 14.1163 11.6051 14.0434 12.0951C13.9818 12.5097 13.9303 12.8414 13.909 12.9557L13.8989 13.0122L12.7343 13.016L11.5697 13.0185V16.5099C11.5697 19.8291 11.5709 20.0013 11.5923 19.9962C11.6036 19.9937 11.6614 19.9837 11.7204 19.9724C12.0546 19.9121 12.4881 19.8141 12.7004 19.7512C12.7456 19.7374 12.8109 19.7186 12.8449 19.7085C14.4077 19.255 15.8915 18.3705 17.0724 17.1896C18.2547 16.0074 19.1379 14.5261 19.5914 12.962C19.6014 12.9268 19.6203 12.8627 19.6341 12.8175C19.6831 12.6517 19.7572 12.3401 19.8163 12.0449C20.0512 10.8714 20.0613 9.52716 19.8439 8.33238C19.7924 8.0497 19.6819 7.57355 19.6115 7.33987C19.3766 6.54838 19.0977 5.88503 18.717 5.21038C18.5687 4.9478 18.5511 4.91765 18.3376 4.59352C17.8149 3.79574 17.1038 3.00927 16.3488 2.38864C15.4002 1.60971 14.3035 1.0029 13.1589 0.625998C13.0484 0.589564 12.9127 0.546848 12.8574 0.530516C12.8021 0.51544 12.723 0.49157 12.6815 0.479006C12.3725 0.384781 11.6752 0.244071 11.3184 0.203868C11.2594 0.19633 11.2003 0.188792 11.1865 0.186279C11.1387 0.174972 10.7091 0.141051 10.4641 0.128488C10.189 0.114668 9.78441 0.114668 9.50299 0.129744Z" fill="#E5C185"/>
</svg>
