<svg width="20" height="20" viewBox="0 0 20 20" fill="none" xmlns="http://www.w3.org/2000/svg">
<path d="M9.30603 0.0220505C7.19372 0.175117 5.22834 0.96698 3.59155 2.32417C3.28542 2.5752 2.56907 3.29359 2.32212 3.59156C0.524105 5.77122 -0.269799 8.4958 0.0812333 11.2755C0.324099 13.1817 1.10372 14.9511 2.37519 16.4695C2.57519 16.7083 3.13032 17.2716 3.38747 17.4981C6.09776 19.8778 9.83258 20.6227 13.2347 19.4615C15.0613 18.839 16.7042 17.6675 17.89 16.141C19.39 14.2103 20.135 11.802 19.9799 9.37747C19.837 7.14474 18.9778 5.07324 17.4981 3.38747C17.2696 3.12624 16.7104 2.5752 16.4593 2.36499C14.9021 1.05474 13.0613 0.271038 11.0204 0.0506229C10.6653 0.0118461 9.66523 -0.00448097 9.30603 0.0220505ZM13.496 4.98956C14.0144 5.07936 14.5103 5.33651 14.9532 5.74469C15.045 5.82837 15.1287 5.89776 15.1389 5.89776C15.1919 5.89776 15.7675 5.69979 16.0042 5.59979C16.1512 5.53856 16.2736 5.48958 16.2757 5.49366C16.2797 5.49774 16.1552 5.72428 16.0022 5.9998C15.7634 6.42431 15.7267 6.49982 15.7593 6.50594C15.7797 6.51002 15.9777 6.4937 16.1961 6.46921C16.4165 6.44472 16.6022 6.43043 16.6083 6.43655C16.6144 6.44267 16.3961 6.66717 16.1246 6.93249L15.6328 7.41822V7.65292C15.6348 8.94888 15.2817 10.4122 14.7123 11.4694C14.547 11.7775 14.4123 11.9857 14.1327 12.3572C13.249 13.5347 12.2408 14.3531 11.0612 14.8532C10.3897 15.1368 9.53053 15.3471 8.69377 15.4328C8.36722 15.4654 7.44679 15.4654 7.14269 15.4307C6.44879 15.3532 5.81408 15.2042 5.19977 14.9736C5.02017 14.9042 4.53036 14.6715 4.53036 14.6532C4.53036 14.645 4.61404 14.6327 4.71812 14.6246C5.22018 14.5899 5.89367 14.4593 6.27532 14.3266C6.62839 14.2021 7.17739 13.9041 7.77537 13.5143L8.06926 13.3225L7.74476 13.2062C7.28147 13.0388 7.17127 12.9939 6.82636 12.8266C6.43655 12.6388 6.23654 12.5061 6.02225 12.298C5.76714 12.051 5.42223 11.6122 5.45692 11.5775C5.46305 11.5714 5.78142 11.5612 6.16511 11.5551C6.8284 11.5449 6.85901 11.5428 6.80187 11.5102C6.77125 11.4918 6.63043 11.4081 6.48961 11.3265C5.60183 10.804 5.08548 10.3775 4.84058 9.95912C4.66098 9.65911 4.51199 9.2591 4.45893 8.9448L4.44464 8.85704L4.97323 9.07133C5.26304 9.18971 5.50795 9.28359 5.51611 9.2795C5.52631 9.27746 5.51407 9.25093 5.49162 9.22236C5.38141 9.0795 5.07324 8.56519 4.91813 8.25498C4.64873 7.72639 4.5324 7.3672 4.4875 6.94269C4.45689 6.6488 4.47526 6.25899 4.52832 6.02021C4.57118 5.83245 4.64669 5.61203 4.66914 5.61203C4.67731 5.61203 4.71608 5.66102 4.75486 5.7202C4.86099 5.87735 5.28345 6.29165 5.5508 6.49778C6.25899 7.04474 7.19984 7.55904 8.05701 7.86517C8.80602 8.13457 9.64686 8.31213 10.3081 8.3407L10.6061 8.35294L10.5795 8.22233C10.4734 7.72027 10.504 7.09576 10.653 6.65493C10.7591 6.34063 10.9326 6.04266 11.153 5.80184C11.4918 5.42835 12.1449 5.0814 12.6755 4.99161C12.9062 4.95283 13.2817 4.95283 13.496 4.98956Z" fill="#E5C185"/>
</svg>
