<svg width="91" height="10" viewBox="0 0 91 10" fill="none" xmlns="http://www.w3.org/2000/svg">
<path d="M1.26807 0.623047H2.91602L5.05225 6.97681L7.18237 0.623047H8.83032L5.71753 9.50977H4.38086L1.26807 0.623047ZM0.315918 0.623047H1.99438L2.30566 7.20874V9.50977H0.315918V0.623047ZM8.104 0.623047H9.78857V9.50977H7.79272V7.20874L8.104 0.623047ZM15.7551 0.623047H17.7449V6.45801C17.7449 7.14974 17.5984 7.73161 17.3054 8.20361C17.0165 8.67562 16.6137 9.03166 16.0969 9.27173C15.5802 9.5118 14.982 9.63184 14.3025 9.63184C13.6189 9.63184 13.0167 9.5118 12.4958 9.27173C11.9791 9.03166 11.5722 8.67562 11.2751 8.20361C10.9822 7.73161 10.8357 7.14974 10.8357 6.45801V0.623047H12.8315V6.45801C12.8315 6.84049 12.8885 7.15381 13.0024 7.39795C13.1204 7.63802 13.2893 7.81502 13.509 7.92896C13.7288 8.03882 13.9932 8.09375 14.3025 8.09375C14.6117 8.09375 14.8742 8.03882 15.0898 7.92896C15.3096 7.81502 15.4744 7.63802 15.5842 7.39795C15.6982 7.15381 15.7551 6.84049 15.7551 6.45801V0.623047ZM22.3442 5.67065H20.0615L20.0493 4.34009H21.9353C22.269 4.34009 22.5396 4.2994 22.7471 4.21802C22.9587 4.13664 23.1133 4.01864 23.2109 3.86401C23.3086 3.70532 23.3574 3.51001 23.3574 3.27808C23.3574 3.01359 23.3086 2.79997 23.2109 2.63721C23.1133 2.47445 22.9587 2.35645 22.7471 2.2832C22.5396 2.20589 22.271 2.16724 21.9414 2.16724H20.7817V9.50977H18.792V0.623047H21.9414C22.4744 0.623047 22.9505 0.671875 23.3696 0.769531C23.7887 0.867188 24.1448 1.01774 24.4377 1.22119C24.7348 1.42464 24.9606 1.67896 25.1152 1.98413C25.2699 2.28931 25.3472 2.64941 25.3472 3.06445C25.3472 3.4266 25.2658 3.76432 25.103 4.07764C24.9443 4.39095 24.688 4.64526 24.334 4.84058C23.98 5.03589 23.5059 5.14168 22.9119 5.15796L22.3442 5.67065ZM22.2649 9.50977H19.5549L20.2751 7.97168H22.2649C22.5701 7.97168 22.8183 7.92285 23.0095 7.8252C23.2008 7.72754 23.3411 7.5953 23.4307 7.42847C23.5202 7.26164 23.5649 7.07446 23.5649 6.86694C23.5649 6.6228 23.5222 6.41121 23.4368 6.23218C23.3554 6.05314 23.2252 5.91479 23.0461 5.81714C22.8712 5.71948 22.6372 5.67065 22.3442 5.67065H20.562L20.5742 4.34009H22.7532L23.217 4.86499C23.7826 4.85278 24.2343 4.94434 24.572 5.13965C24.9138 5.33089 25.16 5.58317 25.3105 5.89648C25.4611 6.2098 25.5364 6.54142 25.5364 6.89136C25.5364 7.46916 25.4123 7.95337 25.1641 8.34399C24.9159 8.73055 24.5476 9.02148 24.0593 9.2168C23.5751 9.41211 22.977 9.50977 22.2649 9.50977ZM42.0349 0.623047V9.50977H40.0513L36.6943 3.76636V9.50977H34.7046V0.623047H36.6943L40.0574 6.36646V0.623047H42.0349ZM46.9333 2.31372L44.6384 9.50977H42.5144L45.8042 0.623047H47.147L46.9333 2.31372ZM48.8376 9.50977L46.5366 2.31372L46.2986 0.623047H47.6597L50.9617 9.50977H48.8376ZM48.74 6.20166V7.73975H44.1074V6.20166H48.74Z" fill="#74A892"/>
<path d="M33.8589 4.87109V5.26782C33.8589 5.94328 33.7653 6.54956 33.5781 7.08667C33.395 7.62378 33.1326 8.08154 32.7908 8.45996C32.453 8.83838 32.0502 9.12931 31.5823 9.33276C31.1184 9.53215 30.6037 9.63184 30.0381 9.63184C29.4725 9.63184 28.9557 9.53215 28.4878 9.33276C28.0199 9.12931 27.613 8.83838 27.2671 8.45996C26.9253 8.08154 26.6608 7.62378 26.4736 7.08667C26.2865 6.54956 26.1929 5.94328 26.1929 5.26782V4.87109C26.1929 4.19564 26.2865 3.58936 26.4736 3.05225C26.6608 2.51107 26.9233 2.05127 27.261 1.67285C27.6028 1.29443 28.0076 1.00553 28.4756 0.806152C28.9435 0.602702 29.4603 0.500977 30.0259 0.500977C30.5915 0.500977 31.1082 0.602702 31.5762 0.806152C32.0441 1.00553 32.4469 1.29443 32.7847 1.67285C33.1265 2.05127 33.391 2.51107 33.5781 3.05225C33.7653 3.58936 33.8589 4.19564 33.8589 4.87109ZM31.8508 5.26782V4.85889C31.8508 4.40723 31.8101 4.00846 31.7288 3.6626C31.6474 3.31266 31.5294 3.01969 31.3748 2.78369C31.2201 2.54769 31.0289 2.37069 30.801 2.25269C30.5732 2.13062 30.3148 2.06958 30.0259 2.06958C29.7248 2.06958 29.4623 2.13062 29.2385 2.25269C29.0147 2.37069 28.8255 2.54769 28.6709 2.78369C28.5203 3.01969 28.4044 3.31266 28.323 3.6626C28.2457 4.00846 28.207 4.40723 28.207 4.85889V5.26782C28.207 5.71541 28.2457 6.11418 28.323 6.46411C28.4044 6.80998 28.5224 7.10295 28.677 7.34302C28.8316 7.58309 29.0208 7.76416 29.2446 7.88623C29.4725 8.0083 29.737 8.06934 30.0381 8.06934C30.327 8.06934 30.5833 8.0083 30.8071 7.88623C31.035 7.76416 31.2262 7.58309 31.3809 7.34302C31.5355 7.10295 31.6514 6.80998 31.7288 6.46411C31.8101 6.11418 31.8508 5.71541 31.8508 5.26782Z" fill="#FF6B00"/>
<path d="M55.0151 0.623047H56.6631L58.7993 6.97681L60.9294 0.623047H62.5774L59.4646 9.50977H58.1279L55.0151 0.623047ZM54.063 0.623047H55.7415L56.0527 7.20874V9.50977H54.063V0.623047ZM61.8511 0.623047H63.5356V9.50977H61.5398V7.20874L61.8511 0.623047ZM66.7556 0.623047V9.50977H64.772V0.623047H66.7556ZM69.9756 0.623047V9.50977H67.9858V0.623047H69.9756ZM75.2856 0.623047L71.8066 5.06641L69.7803 7.26367L69.4202 5.41431L70.7568 3.4978L72.8442 0.623047H75.2856ZM72.9785 9.50977L70.5249 5.45093L72.0386 4.27295L75.3345 9.50977H72.9785ZM79.2747 2.31372L76.9797 9.50977H74.8557L78.1455 0.623047H79.4883L79.2747 2.31372ZM81.179 9.50977L78.8779 2.31372L78.6399 0.623047H80.001L83.303 9.50977H81.179ZM81.0813 6.20166V7.73975H76.4487V6.20166H81.0813ZM90.9968 0.623047V9.50977H89.0132L85.6562 3.76636V9.50977H83.6665V0.623047H85.6562L89.0193 6.36646V0.623047H90.9968Z" fill="#E5C185"/>
</svg>
