<svg width="17" height="26" viewBox="0 0 17 26" fill="none" xmlns="http://www.w3.org/2000/svg">
<path d="M15.1888 12.9193V13.6369C15.1888 14.8587 15.0196 15.9553 14.681 16.9269C14.3498 17.8984 13.8751 18.7264 13.2568 19.4109C12.6459 20.0954 11.9173 20.6216 11.0709 20.9897C10.2318 21.3503 9.30076 21.5306 8.27771 21.5306C7.25465 21.5306 6.31992 21.3503 5.47351 20.9897C4.6271 20.6216 3.89109 20.0954 3.26548 19.4109C2.64723 18.7264 2.16883 17.8984 1.83026 16.9269C1.4917 15.9553 1.32242 14.8587 1.32242 13.6369V12.9193C1.32242 11.6975 1.4917 10.6009 1.83026 9.62934C2.16883 8.65045 2.64355 7.81876 3.25444 7.13427C3.87269 6.44978 4.60502 5.92721 5.45143 5.56657C6.29784 5.19856 7.23257 5.01456 8.25563 5.01456C9.27868 5.01456 10.2134 5.19856 11.0598 5.56657C11.9062 5.92721 12.6349 6.44978 13.2458 7.13427C13.864 7.81876 14.3424 8.65045 14.681 9.62934C15.0196 10.6009 15.1888 11.6975 15.1888 12.9193ZM11.5566 13.6369V12.8972C11.5566 12.0803 11.483 11.359 11.3358 10.7334C11.1886 10.1004 10.9752 9.57046 10.6955 9.14358C10.4158 8.71669 10.0699 8.39653 9.65772 8.18308C9.24556 7.96228 8.77819 7.85188 8.25563 7.85188C7.71098 7.85188 7.23625 7.96228 6.83145 8.18308C6.42664 8.39653 6.0844 8.71669 5.80471 9.14358C5.53239 9.57046 5.32263 10.1004 5.17543 10.7334C5.03558 11.359 4.96566 12.0803 4.96566 12.8972V13.6369C4.96566 14.4465 5.03558 15.1678 5.17543 15.8008C5.32263 16.4264 5.53607 16.9563 5.81575 17.3906C6.09544 17.8248 6.43768 18.1523 6.84249 18.3731C7.25465 18.5939 7.73306 18.7043 8.27771 18.7043C8.80027 18.7043 9.26396 18.5939 9.66876 18.3731C10.0809 18.1523 10.4269 17.8248 10.7065 17.3906C10.9862 16.9563 11.196 16.4264 11.3358 15.8008C11.483 15.1678 11.5566 14.4465 11.5566 13.6369Z" fill="#FF6B00"/>
<path d="M13.0743 0.00634989C13.0673 0.0175957 13.023 0.0694602 13.0063 0.0862492C12.9443 0.147591 12.8608 0.211493 12.7789 0.260602C12.7631 0.270241 12.7432 0.282113 12.7348 0.287085C12.713 0.300313 12.6239 0.346471 12.5789 0.367666C12.4011 0.4521 12.1703 0.537052 11.8769 0.626294C11.8019 0.648936 11.5712 0.714352 11.4763 0.739476C11.4309 0.751562 11.3839 0.764231 11.3721 0.767335C11.3515 0.773147 11.0331 0.855478 10.9028 0.888903C10.357 1.02888 10.0551 1.11218 9.78483 1.19803C9.32984 1.3425 8.98054 1.49051 8.71545 1.65095C8.54486 1.75431 8.40242 1.86647 8.26838 2.00334C8.07861 2.19668 7.94809 2.40214 7.86228 2.64146C7.84278 2.69619 7.83006 2.74095 7.81043 2.82283C7.79145 2.90163 7.77585 3.02721 7.77137 3.13297C7.76949 3.18253 7.78035 3.38447 7.78796 3.43409C7.80118 3.52149 7.81954 3.60864 7.84003 3.68021C7.84574 3.70024 7.85119 3.72027 7.8525 3.72452C7.85357 3.72904 7.85513 3.73277 7.85567 3.73274C7.85648 3.7327 7.86532 3.72568 7.87542 3.71707C8.00318 3.60918 8.20359 3.46124 8.35754 3.36096C8.37797 3.3478 8.40232 3.33191 8.41173 3.32562C8.47821 3.28182 8.56773 3.22803 8.69998 3.1524C8.72942 3.1355 8.87702 3.05785 8.91664 3.03844C8.97921 3.00751 9.03259 2.98211 9.058 2.97073C9.07125 2.96502 9.09028 2.95598 9.10031 2.95093C9.11851 2.94168 9.13016 2.93656 9.18243 2.91552C9.21188 2.90369 9.29117 2.87095 9.30574 2.86466C9.34337 2.84864 9.47606 2.80064 9.55171 2.77568C9.65531 2.74126 9.8861 2.65732 10.0157 2.60667C10.266 2.50885 10.4676 2.422 10.6833 2.319C10.7559 2.28429 10.7543 2.28513 10.7992 2.26242C10.8214 2.25095 10.8401 2.24167 10.8406 2.24165C10.8425 2.24155 11.0078 2.15443 11.0486 2.13191C11.4 1.9389 11.685 1.74147 11.9133 1.53308C11.9598 1.4905 12.0476 1.40077 12.0894 1.35308C12.0971 1.34434 12.1047 1.3356 12.1068 1.33322C12.1178 1.32102 12.1601 1.26697 12.18 1.23937C12.2037 1.20651 12.2351 1.15603 12.2513 1.12506C12.2564 1.11542 12.2609 1.1076 12.2614 1.10757C12.2644 1.10743 12.2399 1.18015 12.2265 1.21201C12.1271 1.44691 11.9324 1.69809 11.6682 1.93307C11.6475 1.95158 11.6271 1.96956 11.6227 1.97307C11.6183 1.97684 11.598 1.99379 11.5773 2.01103C11.5345 2.04684 11.4737 2.09442 11.419 2.13537C11.3833 2.16196 11.2569 2.25025 11.2239 2.27163C11.1417 2.32507 11.0677 2.37075 10.9936 2.41441C10.8828 2.47937 10.7407 2.55523 10.5984 2.62501C10.4445 2.70068 10.2766 2.77398 10.0449 2.86684C9.9998 2.885 9.93589 2.91142 9.90305 2.92569C9.82091 2.96085 9.74898 2.99426 9.65443 3.04042C9.55856 3.08716 9.37628 3.18525 9.29094 3.23605C9.25497 3.25757 9.18198 3.30118 9.17804 3.30365C9.14975 3.32176 9.04722 3.38556 9.0443 3.38672C9.04219 3.38784 8.99173 3.42198 8.93271 3.46314C8.8734 3.50405 8.80126 3.55345 8.77224 3.57312C8.74348 3.59252 8.71685 3.61131 8.71324 3.61478C8.70964 3.61825 8.70236 3.62393 8.69713 3.62748C8.6919 3.63103 8.67654 3.64268 8.66302 3.65323C8.6495 3.66378 8.63543 3.67435 8.63177 3.67681C8.59417 3.70323 8.39382 3.86207 8.35711 3.89479C8.308 3.93877 8.29635 3.94872 8.29343 3.94987C8.27906 3.95488 8.01316 4.19401 7.92466 4.28124C7.91412 4.29164 7.88864 4.31646 7.86803 4.33623C7.81883 4.38351 7.64973 4.55835 7.59168 4.62204C7.49881 4.72343 7.49026 4.73552 7.48347 4.76984C7.47015 4.83822 7.52912 4.90921 7.60289 4.91428C7.63691 4.91645 7.68025 4.90548 7.71953 4.88506C7.75352 4.86693 7.76339 4.8591 7.81325 4.809C7.87235 4.74957 7.92091 4.71044 7.9828 4.67194C8.17918 4.54932 8.41728 4.50461 8.64716 4.54706C8.72114 4.56074 8.76917 4.57593 8.86932 4.61677C8.99391 4.66785 9.09312 4.70138 9.20095 4.72891C9.52305 4.81081 9.83389 4.81638 10.1402 4.74504C10.3467 4.69677 10.5593 4.60914 10.7472 4.49479C10.763 4.48515 10.7761 4.47742 10.7767 4.47739C10.7791 4.47727 10.8529 4.42856 10.8902 4.4024C11.1065 4.25117 11.2938 4.07849 11.4929 3.84664C11.5049 3.83287 11.5379 3.79272 11.5669 3.75682C11.6004 3.71537 11.6714 3.62137 11.7064 3.57249C11.7902 3.45479 11.901 3.28022 11.9632 3.16813C11.9686 3.15797 11.9788 3.13998 11.9857 3.12772C12.0341 3.04116 12.0761 2.95794 12.1298 2.84372C12.1501 2.80012 12.1669 2.76379 12.1668 2.76303C12.1668 2.76227 12.1738 2.74621 12.1822 2.72728C12.1993 2.68814 12.2154 2.64957 12.235 2.59813C12.2424 2.579 12.2521 2.55392 12.2564 2.54255C12.2678 2.51308 12.2982 2.42484 12.3099 2.38673C12.3463 2.26928 12.3687 2.17484 12.3828 2.07978C12.4039 1.93719 12.4403 1.75961 12.4749 1.63083C12.4792 1.61515 12.4853 1.59202 12.4881 1.57946C12.4957 1.54941 12.5289 1.43338 12.5484 1.36901C12.6186 1.1378 12.7014 0.902421 12.8042 0.641724C12.8344 0.564916 12.8485 0.530492 12.8756 0.465253C12.9103 0.381377 12.9268 0.342269 12.9411 0.30987C12.9502 0.288372 12.9608 0.264012 12.9644 0.255467C12.968 0.246921 12.9783 0.223586 12.9873 0.20362C12.9962 0.183653 13.0068 0.1598 13.0107 0.150482C13.0148 0.141151 13.0319 0.103535 13.0492 0.0666772C13.0661 0.0300859 13.0799 -9.91097e-06 13.0794 1.61663e-05C13.0789 4.22436e-05 13.0766 0.00294303 13.0743 0.00634989ZM10.1146 1.55661C10.1108 1.56237 10.0995 1.5685 10.0993 1.56471C10.0992 1.56268 10.1143 1.5513 10.1172 1.5509C10.1178 1.55087 10.1166 1.55347 10.1146 1.55661ZM8.66043 3.97557C8.66131 3.97679 8.66111 3.97807 8.65949 3.97815C8.65814 3.97821 8.6559 3.97705 8.65502 3.97583C8.65413 3.97435 8.65434 3.97332 8.65596 3.97325C8.65732 3.97318 8.65954 3.97409 8.66043 3.97557ZM8.46423 4.00786C8.46512 4.00934 8.46406 4.00964 8.46185 4.00899C8.45688 4.00745 8.45597 4.00572 8.45976 4.00554C8.46138 4.00546 8.46333 4.00638 8.46423 4.00786Z" fill="#4AAC0E"/>
</svg>
